<svg id="Layer_1" data-name="Layer 1" xmlns="http://www.w3.org/2000/svg" viewBox="0 0 200 200"><defs><style>.cls-1{fill:#fff;}.cls-2{fill:#f5f5f5;}.cls-3{fill:#ececec;}.cls-4{fill:#e1e1e1;}.cls-5{fill:#1a2e35;}.cls-6{fill:#375a64;}.cls-7{fill:#ff5517;}.cls-8{fill:#fafafa;}.cls-9{fill:#ff735d;}.cls-10{opacity:0.3;}.cls-11{fill:#d8765f;}.cls-12{fill:#7c4236;}.cls-13{opacity:0.6;}</style></defs><rect class="cls-1" width="200" height="200"/><ellipse class="cls-2" cx="109.69" cy="188.67" rx="40.31" ry="7.29"/><path class="cls-3" d="M141.81,189.18a.94.94,0,0,0-.09-.33,1.9,1.9,0,0,0-.7-.7,12.91,12.91,0,0,0-3.64-1.33A88.18,88.18,0,0,0,123.15,185a212.58,212.58,0,0,0-21.3-.31c-4,.14-8.21.39-12.54.88-2.17.26-4.37.56-6.57,1a27.31,27.31,0,0,0-3.28.86,9.32,9.32,0,0,0-1.56.65,3.4,3.4,0,0,0-.69.48.78.78,0,0,0,0,1.32,3.58,3.58,0,0,0,.68.47,9.84,9.84,0,0,0,1.57.66,28.72,28.72,0,0,0,3.28.85c2.2.45,4.4.76,6.57,1,4.33.49,8.54.74,12.54.89a212.58,212.58,0,0,0,21.3-.31,89.33,89.33,0,0,0,14.23-1.87A12.87,12.87,0,0,0,141,190.2a1.89,1.89,0,0,0,.7-.69.94.94,0,0,0,.09-.33.66.66,0,0,1-.07.33,1.8,1.8,0,0,1-.7.73,12.71,12.71,0,0,1-3.64,1.38,86.64,86.64,0,0,1-14.24,1.95,211.71,211.71,0,0,1-21.31.35c-4-.14-8.22-.39-12.57-.87-2.17-.25-4.37-.56-6.59-1a31,31,0,0,1-3.31-.86,11.13,11.13,0,0,1-1.6-.68,3.87,3.87,0,0,1-.72-.5,1.21,1.21,0,0,1-.43-.83,1.16,1.16,0,0,1,.43-.81,3.31,3.31,0,0,1,.73-.51,9.68,9.68,0,0,1,1.6-.67,27.77,27.77,0,0,1,3.31-.86c2.21-.45,4.41-.76,6.58-1,4.35-.49,8.56-.73,12.57-.87a211.71,211.71,0,0,1,21.31.35,86.64,86.64,0,0,1,14.24,2,12.71,12.71,0,0,1,3.64,1.38,1.78,1.78,0,0,1,.7.72A.7.7,0,0,1,141.81,189.18Z" transform="translate(0.06 -0.92)"/><path class="cls-3" d="M130.23,188.84s0-.07-.07-.2a1.2,1.2,0,0,0-.44-.44,8.34,8.34,0,0,0-2.31-.83,56.72,56.72,0,0,0-9-1.18c-3.83-.25-8.41-.36-13.48-.18-2.54.09-5.2.25-7.94.56-1.37.16-2.76.35-4.16.64a17,17,0,0,0-2.07.54,5.63,5.63,0,0,0-1,.41c-.3.16-.63.4-.64.68s.34.52.63.69a6.65,6.65,0,0,0,1,.41,18.52,18.52,0,0,0,2.07.54c1.39.29,2.79.48,4.16.64,2.74.31,5.4.47,7.94.56,5.07.18,9.65.07,13.48-.18a56.72,56.72,0,0,0,9-1.18,8,8,0,0,0,2.31-.84,1.12,1.12,0,0,0,.44-.43,2,2,0,0,0,.07-.21.73.73,0,0,1,0,.22,1.15,1.15,0,0,1-.44.46,7.73,7.73,0,0,1-2.31.88,54.39,54.39,0,0,1-9,1.25,131.21,131.21,0,0,1-13.5.23c-2.54-.09-5.21-.24-8-.55-1.37-.16-2.77-.35-4.17-.64a17,17,0,0,1-2.1-.54,6.49,6.49,0,0,1-1-.43,2.21,2.21,0,0,1-.47-.33.78.78,0,0,1-.28-.55.8.8,0,0,1,.28-.55,2.79,2.79,0,0,1,.47-.32,6.91,6.91,0,0,1,1-.43,17.5,17.5,0,0,1,2.1-.54c1.4-.29,2.8-.49,4.17-.64,2.75-.31,5.42-.47,8-.55a131.27,131.27,0,0,1,13.5.23,54.58,54.58,0,0,1,9,1.24,7.69,7.69,0,0,1,2.31.89,1.15,1.15,0,0,1,.44.46A.79.79,0,0,1,130.23,188.84Z" transform="translate(0.06 -0.92)"/><path class="cls-3" d="M120.87,188.84a.5.5,0,0,0-.26-.31,4.31,4.31,0,0,0-1.15-.41,30.82,30.82,0,0,0-4.5-.57c-1.92-.12-4.2-.17-6.74-.08-1.27.05-2.59.13-4,.29-.69.08-1.38.17-2.08.32a9.71,9.71,0,0,0-1,.26,2.91,2.91,0,0,0-.48.21c-.15.07-.29.19-.29.29s.14.22.29.29a2.91,2.91,0,0,0,.48.21c.34.11.69.19,1,.27.7.14,1.39.24,2.08.31,1.36.16,2.69.24,4,.29,2.54.09,4.82,0,6.74-.08a28.26,28.26,0,0,0,4.5-.57,4,4,0,0,0,1.15-.41.47.47,0,0,0,.26-.31.19.19,0,0,1,0,.11.53.53,0,0,1-.22.24,4,4,0,0,1-1.15.45,26.06,26.06,0,0,1-4.51.64,65.39,65.39,0,0,1-6.76.13c-1.27,0-2.6-.12-4-.27-.69-.08-1.39-.18-2.09-.32a8.3,8.3,0,0,1-1.06-.28,3.77,3.77,0,0,1-.52-.21c-.15-.1-.37-.2-.4-.49s.25-.39.4-.48a2.89,2.89,0,0,1,.52-.22,10.37,10.37,0,0,1,1.06-.28c.7-.14,1.4-.24,2.09-.32,1.38-.15,2.71-.23,4-.27a65.39,65.39,0,0,1,6.76.13,27.08,27.08,0,0,1,4.51.64,4,4,0,0,1,1.15.45.58.58,0,0,1,.22.24A.19.19,0,0,1,120.87,188.84Z" transform="translate(0.06 -0.92)"/><rect class="cls-2" x="8.18" y="48.76" width="12.79" height="5.02"/><path class="cls-4" d="M15.8,59.64a.51.51,0,0,0,0-.09V58.3c0-.86,0-2.11,0-3.68l.05.06L0,54.72s-.08.09.08-.1h0v5L0,59.54l11.24.05,3.32,0,.9,0h-.86l-3.3,0L0,59.73H-.06V54.64h0l.08-.1,15.78,0h0v.06l0,3.72c0,.41,0,.74,0,1v.33Z" transform="translate(0.06 -0.92)"/><rect class="cls-3" x="119.55" y="158.95" width="20.61" height="5.41"/><path class="cls-4" d="M131.38,171v-.38l0-1.06c0-.94,0-2.28,0-4l.06.06-20.6,0,.1-.1h0V171l-.1-.1,14.68,0,4.33,0h.05l-4.31,0-14.75.05h-.11v-5.49h0l.11-.11,20.6,0h.07v.06c0,1.71,0,3.06,0,4,0,.45,0,.8,0,1.05v.27A.31.31,0,0,1,131.38,171Z" transform="translate(0.06 -0.92)"/><rect class="cls-2" x="81.31" y="50.66" width="20.61" height="5.41"/><path class="cls-4" d="M93.14,62.68a.82.82,0,0,0,0-.1v-.27l0-1.07c0-.93,0-2.27,0-4l.06.07-20.6,0c0-.05-.11.1.1-.11h0v5.39l-.11-.1,14.69.05,4.33,0h0l-4.31,0-14.76,0h-.1V57.29h0l.11-.1,20.6,0h.07v.06c0,1.71,0,3.07,0,4,0,.45,0,.8,0,1v.27A.2.2,0,0,1,93.14,62.68Z" transform="translate(0.06 -0.92)"/><path class="cls-4" d="M142,14.77v-.38l0-1.06c0-.93,0-2.28,0-4l.06.06-20.6,0,.1-.1h0v5.39l-.1-.1,14.68,0,4.34,0,1.17,0h0l-1.15,0-4.31,0-14.75,0h-.11V9.38h0c.21-.21.06-.06.11-.1l20.6,0H142v.06c0,1.71,0,3.06,0,4,0,.45,0,.8,0,1.05v.26C142,14.74,142,14.77,142,14.77Z" transform="translate(0.06 -0.92)"/><rect class="cls-2" x="177.89" y="75.94" width="20.61" height="5.41"/><path class="cls-4" d="M192.91,88a.67.67,0,0,0,0-.1v-.28l0-1.06c0-.94,0-2.28,0-4l.06.06-20.6,0,.1-.1h0V88l-.11-.1,14.69,0,4.33,0h.05l-4.31,0-14.76,0h-.1V82.58h0l.11-.11,20.6,0H193v.06c0,1.71,0,3.06,0,4,0,.45,0,.8,0,1.06v.26A.62.62,0,0,0,192.91,88Z" transform="translate(0.06 -0.92)"/><rect class="cls-4" x="29.5" y="19.7" width="38.45" height="63.14"/><rect class="cls-3" x="28.23" y="19.7" width="38.45" height="63.14"/><rect class="cls-1" x="29.86" y="20.98" width="35.17" height="60.58"/><rect class="cls-3" x="36.56" y="28.85" width="21.63" height="44.83"/><path class="cls-4" d="M36.5,58.74c0-4.19,3.74-8.28,7.92-8.86,2-.28,4.11.11,6-.65,3.32-1.35,4.38-5.73,7.72-7l.16,32.4H36.5Z" transform="translate(0.06 -0.92)"/><path class="cls-4" d="M57.46,11.87v-.38c0-.25,0-.61,0-1.06,0-.94,0-2.28,0-4l.06.06-20.6,0s-.11.11.1-.1h0v5.39l-.1-.11,14.68.05,4.34,0h0l-4.31,0L36.86,12h-.11V6.48h0l.11-.11,20.6,0h.07v.07c0,1.71,0,3.06,0,4,0,.45,0,.8,0,1v.27C57.47,11.84,57.47,11.87,57.46,11.87Z" transform="translate(0.06 -0.92)"/><path class="cls-4" d="M60.26,6.46s0,0,0-.11V6.07l0-1.09c0-1,0-2.28,0-3.93l.08.07-12.38,0,.1-.1h0V6.46l-.1-.1,8.85,0,2.58,0H60l.25,0h-.9l-2.56,0-8.92,0h-.1v-.1c0-.84,0-1.72,0-2.63V1.07h0l.11-.11L60.26,1h.07v.08c0,1.66,0,3,0,4,0,.45,0,.8,0,1.07S60.26,6.46,60.26,6.46Z" transform="translate(0.06 -0.92)"/><path class="cls-4" d="M196.75,45a.87.87,0,0,0,0-.11v-.31c0-.28,0-.67,0-1.18,0-1,0-2.53,0-4.41l.07.07-22.88,0L174,39h0v3.05c0,1,0,2,0,2.95l-.11-.11,16.31,0L195,45h1.33l-1.28,0-4.78,0-16.39,0h-.11V45c0-1,0-1.95,0-2.95V39h0c.24-.23.07-.06.12-.11l22.88,0h.07V39c0,1.9,0,3.41,0,4.45,0,.5,0,.89,0,1.17v.29A.36.36,0,0,1,196.75,45Z" transform="translate(0.06 -0.92)"/><path class="cls-4" d="M199.85,39a.87.87,0,0,0,0-.11V38.6c0-.29,0-.7,0-1.2,0-1.06,0-2.54,0-4.37l.08.08-13.74,0,.11-.11h0v6l-.11-.11,9.83.06,2.86,0h1a1,1,0,0,1-.25,0h-.75l-2.83,0-9.91,0H186V33.05h0s.22-.22.12-.12l13.74,0h.09V33c0,1.85,0,3.35-.05,4.42,0,.5,0,.89,0,1.18A2.78,2.78,0,0,1,199.85,39Z" transform="translate(0.06 -0.92)"/><path class="cls-5" d="M193.14,178.11c0,.06-41.07.11-91.71.11s-91.72-.05-91.72-.11,41.06-.11,91.72-.11S193.14,178.05,193.14,178.11Z" transform="translate(0.06 -0.92)"/><path class="cls-5" d="M176.71,153.13H86a4.42,4.42,0,0,1-4.44-4.41v-133A4.43,4.43,0,0,1,86,11.35h90.69a4.43,4.43,0,0,1,4.45,4.41v133A4.43,4.43,0,0,1,176.71,153.13Z" transform="translate(0.06 -0.92)"/><path class="cls-5" d="M176.71,153.13l.31,0a3.43,3.43,0,0,0,.39,0,5.25,5.25,0,0,0,.52-.12,4.46,4.46,0,0,0,2.71-2.2,4.69,4.69,0,0,0,.41-1.18,6.18,6.18,0,0,0,.08-1.38V145c0-2.31,0-5,0-8,0-12,0-29.32,0-50.75,0-10.71,0-22.44,0-35q0-9.45,0-19.52V16.31A7.85,7.85,0,0,0,181,15a4.39,4.39,0,0,0-.41-1.22,4.47,4.47,0,0,0-1.8-1.83,4.88,4.88,0,0,0-1.23-.44,5.79,5.79,0,0,0-1.32-.08H86a4.54,4.54,0,0,0-2.79,1A4.35,4.35,0,0,0,81.76,15a7.47,7.47,0,0,0-.08,1.5v40.1c0,15.41,0,30.28,0,44.45s0,27.62,0,40.22v7a7.15,7.15,0,0,0,0,1.14A4.36,4.36,0,0,0,85.42,153a8.12,8.12,0,0,0,1.11,0h20.28l51.15,0,13.91,0h0l-13.91,0-51.15,0H86.53a7.3,7.3,0,0,1-1.14-.05,4.53,4.53,0,0,1-3.52-2.66,4.35,4.35,0,0,1-.32-1.12,7.51,7.51,0,0,1,0-1.16v-7c0-12.6,0-26.06,0-40.22s0-29,0-44.45V16.46a7.89,7.89,0,0,1,.08-1.53,4.64,4.64,0,0,1,1.56-2.64,4.75,4.75,0,0,1,2.92-1h90.2a7,7,0,0,1,1.36.09,4.9,4.9,0,0,1,1.28.46,4.49,4.49,0,0,1,2.3,3.17,7.51,7.51,0,0,1,.07,1.33V31.73q0,10.06,0,19.52c0,12.6,0,24.33,0,35,0,21.43,0,38.76,0,50.75,0,3,0,5.65,0,8,0,1.15,0,2.22,0,3.19a7.76,7.76,0,0,1-.08,1.39,4.71,4.71,0,0,1-.43,1.18,4.43,4.43,0,0,1-1.37,1.56,4.5,4.5,0,0,1-1.37.65,4.45,4.45,0,0,1-.52.11,3.22,3.22,0,0,1-.39,0Z" transform="translate(0.06 -0.92)"/><ellipse class="cls-6" cx="131.43" cy="145.09" rx="3.82" ry="3.79"/><path class="cls-6" d="M141.57,18.85H121.23a1.41,1.41,0,0,1-1.41-1.41h0A1.41,1.41,0,0,1,121.23,16h20.34A1.42,1.42,0,0,1,143,17.44h0A1.42,1.42,0,0,1,141.57,18.85Z" transform="translate(0.06 -0.92)"/><rect class="cls-1" x="84.7" y="20.55" width="93.3" height="118.4"/><path class="cls-2" d="M162.2,88.21H100.4a.61.61,0,0,1-.62-.61V78a.61.61,0,0,1,.62-.61h61.8a.61.61,0,0,1,.61.61V87.6A.61.61,0,0,1,162.2,88.21Z" transform="translate(0.06 -0.92)"/><path class="cls-5" d="M162.2,88.21a.67.67,0,0,0,.35-.12.63.63,0,0,0,.24-.37c0-.18,0-.4,0-.64,0-1,0-2.4,0-4.24,0-.92,0-2,0-3.07V78a.56.56,0,0,0-.54-.55h-1l-9,0-51.89,0a.51.51,0,0,0-.51.48v9.24a3.16,3.16,0,0,0,0,.44.5.5,0,0,0,.54.42h16.93l23.33,0,15.73,0,4.28,0h0l-4.28,0-15.73,0-23.33,0H100.44a.72.72,0,0,1-.76-.61c0-.18,0-.31,0-.47V78a.73.73,0,0,1,.73-.69l51.89,0,9,0h1a.67.67,0,0,1,.64.67v1.75c0,1.12,0,2.15,0,3.07,0,1.84,0,3.26,0,4.24a6.32,6.32,0,0,1,0,.64.61.61,0,0,1-.26.39.65.65,0,0,1-.27.1A.21.21,0,0,1,162.2,88.21Z" transform="translate(0.06 -0.92)"/><path class="cls-2" d="M162.26,103.05h-61.8a.62.62,0,0,1-.62-.61V92.86a.62.62,0,0,1,.62-.62h61.8a.62.62,0,0,1,.62.62v9.58A.62.62,0,0,1,162.26,103.05Z" transform="translate(0.06 -0.92)"/><path class="cls-5" d="M162.26,103.05a.65.65,0,0,0,.35-.12.63.63,0,0,0,.24-.38c0-.17,0-.39,0-.63,0-1,0-2.41,0-4.25,0-.92,0-1.94,0-3.06V92.85a.57.57,0,0,0-.53-.55h-9.93l-51.9,0a.51.51,0,0,0-.5.49v9.24c0,.14,0,.32,0,.43a.54.54,0,0,0,.18.32.55.55,0,0,0,.36.11h16.94l23.33,0,15.72,0,4.28,0h0l-4.28,0-15.72,0-23.33,0H100.5A.78.78,0,0,1,100,103a.76.76,0,0,1-.27-.45c0-.19,0-.31,0-.47V92.83a.72.72,0,0,1,.73-.69l51.9,0h9.93a.67.67,0,0,1,.64.66v4.82c0,1.84,0,3.27,0,4.25a6.32,6.32,0,0,1,0,.64.58.58,0,0,1-.26.38.54.54,0,0,1-.26.11Z" transform="translate(0.06 -0.92)"/><path class="cls-5" d="M106.29,81.32v2.49H106L104.48,82v1.86h-.36V81.32h.3l1.51,1.86V81.32Z" transform="translate(0.06 -0.92)"/><path class="cls-5" d="M108.5,82.67v1.14h-.33v-.25a.69.69,0,0,1-.62.27c-.43,0-.71-.22-.71-.55s.2-.55.77-.55h.55v-.07c0-.29-.17-.46-.51-.46a1,1,0,0,0-.61.21l-.14-.26a1.25,1.25,0,0,1,.78-.24C108.21,81.91,108.5,82.16,108.5,82.67Zm-.34.57V83h-.54c-.34,0-.43.13-.43.29s.15.31.42.31A.57.57,0,0,0,108.16,83.24Z" transform="translate(0.06 -0.92)"/><path class="cls-5" d="M112.3,82.73v1.08H112v-1c0-.38-.18-.56-.49-.56a.56.56,0,0,0-.58.63v1h-.34v-1c0-.38-.18-.56-.49-.56s-.57.22-.57.63v1h-.35V81.92h.33v.29a.76.76,0,0,1,.66-.3.7.7,0,0,1,.66.35.84.84,0,0,1,.73-.35A.72.72,0,0,1,112.3,82.73Z" transform="translate(0.06 -0.92)"/><path class="cls-5" d="M114.67,83h-1.55a.65.65,0,0,0,.69.56.73.73,0,0,0,.55-.23l.19.22a1,1,0,0,1-1.77-.66.92.92,0,0,1,1-1,.91.91,0,0,1,.94,1Zm-1.55-.24h1.22a.59.59,0,0,0-.61-.55A.6.6,0,0,0,113.12,82.74Z" transform="translate(0.06 -0.92)"/><rect class="cls-7" x="100" y="108.06" width="63.03" height="10.8" rx="1.45"/><path class="cls-1" d="M125.77,113.21h.71v1.94h1.2v.56h-1.91Z" transform="translate(0.06 -0.92)"/><path class="cls-1" d="M127.8,114.74a1.11,1.11,0,1,1,1.1,1A1,1,0,0,1,127.8,114.74Zm1.51,0a.41.41,0,1,0-.41.46A.41.41,0,0,0,129.31,114.74Z" transform="translate(0.06 -0.92)"/><path class="cls-1" d="M132.42,113.77v1.59c0,.73-.42,1.07-1.15,1.07a1.73,1.73,0,0,1-1-.25l.25-.47a1.2,1.2,0,0,0,.66.2c.37,0,.52-.16.52-.46v-.07a.74.74,0,0,1-.58.23.94.94,0,1,1,0-1.87.71.71,0,0,1,.61.27v-.24Zm-.68.9a.43.43,0,1,0-.43.4A.4.4,0,0,0,131.74,114.67Z" transform="translate(0.06 -0.92)"/><path class="cls-1" d="M133.93,113.21h.71v2.5h-.71Z" transform="translate(0.06 -0.92)"/><path class="cls-1" d="M137.2,114.6v1.11h-.69v-1c0-.28-.12-.39-.32-.39s-.39.13-.39.45v.94h-.68v-1.94h.65V114a.86.86,0,0,1,.62-.24A.76.76,0,0,1,137.2,114.6Z" transform="translate(0.06 -0.92)"/><path class="cls-5" d="M104.75,97.71a.95.95,0,1,1-.94-.94A.94.94,0,0,1,104.75,97.71Z" transform="translate(0.06 -0.92)"/><path class="cls-5" d="M107.73,97.71a.95.95,0,1,1-.94-.94A.94.94,0,0,1,107.73,97.71Z" transform="translate(0.06 -0.92)"/><path class="cls-5" d="M110.71,97.71a.95.95,0,1,1-.94-.94A.94.94,0,0,1,110.71,97.71Z" transform="translate(0.06 -0.92)"/><path class="cls-5" d="M113.69,97.71a.95.95,0,1,1-.94-.94A.94.94,0,0,1,113.69,97.71Z" transform="translate(0.06 -0.92)"/><path class="cls-5" d="M116.67,97.71a.95.95,0,1,1-.94-.94A.94.94,0,0,1,116.67,97.71Z" transform="translate(0.06 -0.92)"/><path class="cls-5" d="M119.65,97.71a.95.95,0,1,1-.94-.94A.94.94,0,0,1,119.65,97.71Z" transform="translate(0.06 -0.92)"/><path class="cls-5" d="M122.63,97.71a.95.95,0,1,1-.94-.94A.94.94,0,0,1,122.63,97.71Z" transform="translate(0.06 -0.92)"/><path class="cls-5" d="M125.61,97.71a.95.95,0,1,1-.94-.94A.94.94,0,0,1,125.61,97.71Z" transform="translate(0.06 -0.92)"/><path class="cls-4" d="M158,97h-.24v-.34a1.18,1.18,0,0,0-2.35,0V97H155a.43.43,0,0,0-.43.43v1.9a.43.43,0,0,0,.43.43h3a.44.44,0,0,0,.44-.43v-1.9A.44.44,0,0,0,158,97Zm-1,2.14H156l.23-.58a.48.48,0,0,1-.27-.43.49.49,0,1,1,1,0,.48.48,0,0,1-.28.43Zm.42-2.14h-1.63v-.34a.81.81,0,0,1,.81-.81.82.82,0,0,1,.82.81Z" transform="translate(0.06 -0.92)"/><ellipse class="cls-8" cx="131.52" cy="52.07" rx="18.84" ry="18.69"/><path class="cls-5" d="M150.3,53l0-.3c0-.21,0-.5-.05-.89,0-.19,0-.41,0-.65s-.08-.5-.12-.78-.1-.59-.15-.91-.16-.66-.24-1a17.61,17.61,0,0,0-2.09-5,18.59,18.59,0,0,0-4.77-5.28l-.81-.6c-.29-.19-.59-.36-.88-.54a10.36,10.36,0,0,0-.92-.52l-1-.47-.5-.23-.52-.19-1.05-.38c-.36-.12-.74-.19-1.11-.29a8.43,8.43,0,0,0-1.13-.26,18.48,18.48,0,0,0-2.37-.27c-.41,0-.81-.05-1.22-.05l-1.24.07c-.21,0-.42,0-.63,0l-.62.09c-.42.07-.85.12-1.27.21a20.67,20.67,0,0,0-2.49.72,19.55,19.55,0,0,0-2.45,1.07c-.39.21-.77.46-1.16.69-.2.12-.4.23-.58.36l-.55.41a21.24,21.24,0,0,0-2.13,1.79l-.95,1-.24.26-.22.28-.43.57-.43.57-.37.61-.38.62-.19.31-.16.32c-.21.44-.42.87-.64,1.31l-.5,1.38a19.77,19.77,0,0,0-1,5.86,19.57,19.57,0,0,0,1,5.87l.5,1.37.64,1.31.16.33.19.31.38.61.37.61.43.58.43.57.22.28.24.26.95,1a20.93,20.93,0,0,0,2.12,1.79l.56.41c.18.14.38.24.58.37.39.23.77.48,1.16.69a19.49,19.49,0,0,0,2.45,1.06,18.74,18.74,0,0,0,2.5.73c.41.09.84.14,1.26.2l.62.1c.21,0,.42,0,.63,0l1.24.06c.41,0,.82,0,1.22,0a18.48,18.48,0,0,0,2.37-.28,10.3,10.3,0,0,0,1.13-.25c.38-.1.75-.18,1.11-.29l1.05-.39.52-.18.5-.24,1-.46a9.18,9.18,0,0,0,.92-.53c.3-.18.6-.35.88-.53l.81-.6a18.59,18.59,0,0,0,4.77-5.28,17.61,17.61,0,0,0,2.09-5c.08-.36.2-.7.24-1l.15-.91c0-.28.09-.54.12-.78l0-.66c0-.38,0-.68.05-.88l0-.31s0,.11,0,.31,0,.5,0,.89l0,.65c0,.24-.07.5-.11.79l-.13.91c0,.33-.16.66-.24,1a17.73,17.73,0,0,1-2.06,5,18.66,18.66,0,0,1-4.78,5.34l-.82.61c-.29.19-.59.36-.89.54a9.25,9.25,0,0,1-.92.54l-1,.47-.5.23-.52.19-1.07.39c-.36.12-.74.2-1.11.3a8.72,8.72,0,0,1-1.15.26,17,17,0,0,1-2.39.28c-.41,0-.82.06-1.23,0l-1.26-.06c-.21,0-.42,0-.63,0l-.63-.09c-.42-.07-.85-.12-1.28-.21a19.46,19.46,0,0,1-2.52-.73,20.61,20.61,0,0,1-2.48-1.07c-.4-.22-.78-.47-1.18-.7-.19-.12-.4-.23-.58-.36l-.56-.42a20.4,20.4,0,0,1-2.15-1.81l-1-1-.24-.27-.22-.28-.43-.58-.44-.57-.38-.62-.38-.63-.19-.31-.16-.33L114,60.32l-.51-1.4a18.43,18.43,0,0,1,0-11.86l.51-1.39.65-1.33.16-.33.19-.31.38-.62.38-.62.44-.58.43-.57.22-.29.24-.26,1-1.06a21.68,21.68,0,0,1,2.15-1.81l.56-.41c.18-.14.39-.24.58-.37.4-.23.78-.48,1.18-.69A20.69,20.69,0,0,1,125,35.34a21.18,21.18,0,0,1,2.52-.73c.43-.08.86-.13,1.28-.2l.63-.09c.21,0,.42,0,.63,0l1.26-.07c.41,0,.82,0,1.23,0a18.58,18.58,0,0,1,2.39.28c.4.05.77.18,1.15.26s.75.18,1.11.3l1.07.39.52.19.5.24,1,.47c.33.15.62.36.92.53s.6.36.89.55l.81.6a18.73,18.73,0,0,1,4.79,5.35,17.61,17.61,0,0,1,2.06,5c.08.36.2.7.24,1s.09.63.13.91.09.54.11.78l0,.66,0,.89C150.3,52.89,150.3,53,150.3,53Z" transform="translate(0.06 -0.92)"/><path class="cls-4" d="M133.33,53.27a4.32,4.32,0,1,0-3.13,0c-6.63.93-6.33,7.64-6.33,7.64l15.67.07S139.9,54.19,133.33,53.27Z" transform="translate(0.06 -0.92)"/><path class="cls-5" d="M102.21,127.78h-2a.51.51,0,0,1-.52-.51v-2a.52.52,0,0,1,.52-.52h2a.52.52,0,0,1,.52.52v2A.51.51,0,0,1,102.21,127.78Zm-2-2.85a.31.31,0,0,0-.31.31v2a.31.31,0,0,0,.31.3h2a.31.31,0,0,0,.31-.3v-2a.31.31,0,0,0-.31-.31Z" transform="translate(0.06 -0.92)"/><path class="cls-5" d="M105.67,127.06l-.38-.53h-.53v.52h-.25v-1.72h.67c.45,0,.73.23.73.6a.53.53,0,0,1-.38.54l.41.58Zm0-1.12c0-.24-.17-.38-.48-.38h-.42v.77h.42C105.49,126.33,105.66,126.19,105.66,125.94Z" transform="translate(0.06 -0.92)"/><path class="cls-5" d="M107.45,126.49h-1.06a.44.44,0,0,0,.47.38.48.48,0,0,0,.38-.16l.13.15a.72.72,0,0,1-1.22-.45.64.64,0,0,1,.66-.66.63.63,0,0,1,.65.67S107.45,126.47,107.45,126.49Zm-1.06-.17h.84a.41.41,0,0,0-.42-.37A.4.4,0,0,0,106.39,126.32Z" transform="translate(0.06 -0.92)"/><path class="cls-5" d="M110,126.31v.75h-.24v-.72c0-.26-.12-.38-.34-.38a.38.38,0,0,0-.39.43v.67h-.24v-.72c0-.26-.12-.38-.33-.38a.38.38,0,0,0-.4.43v.67h-.23v-1.3H108V126a.55.55,0,0,1,.45-.2.5.5,0,0,1,.46.24.58.58,0,0,1,.5-.24A.5.5,0,0,1,110,126.31Z" transform="translate(0.06 -0.92)"/><path class="cls-5" d="M111.58,126.49h-1.06a.45.45,0,0,0,.48.38.46.46,0,0,0,.37-.16l.13.15a.62.62,0,0,1-.51.21.65.65,0,0,1-.7-.66.65.65,0,1,1,1.3,0A.17.17,0,0,1,111.58,126.49Zm-1.06-.17h.84a.4.4,0,0,0-.42-.37A.41.41,0,0,0,110.52,126.32Z" transform="translate(0.06 -0.92)"/><path class="cls-5" d="M114.09,126.31v.75h-.24v-.72c0-.26-.12-.38-.33-.38a.38.38,0,0,0-.4.43v.67h-.23v-.72c0-.26-.13-.38-.34-.38s-.39.15-.39.43v.67h-.24v-1.3h.23V126a.52.52,0,0,1,.45-.2.47.47,0,0,1,.45.24.59.59,0,0,1,.51-.24A.5.5,0,0,1,114.09,126.31Z" transform="translate(0.06 -0.92)"/><path class="cls-5" d="M115.89,126.41a.63.63,0,0,1-.66.66.54.54,0,0,1-.47-.22v.21h-.23v-1.82h.24V126a.56.56,0,0,1,.46-.21A.63.63,0,0,1,115.89,126.41Zm-.24,0a.44.44,0,1,0-.44.46A.43.43,0,0,0,115.65,126.41Z" transform="translate(0.06 -0.92)"/><path class="cls-5" d="M117.39,126.49h-1.06a.45.45,0,0,0,.48.38.49.49,0,0,0,.38-.16l.13.15a.66.66,0,0,1-.52.21.65.65,0,0,1-.7-.66.64.64,0,0,1,.65-.66.63.63,0,0,1,.65.67A.17.17,0,0,1,117.39,126.49Zm-1.06-.17h.84a.4.4,0,0,0-.42-.37A.41.41,0,0,0,116.33,126.32Z" transform="translate(0.06 -0.92)"/><path class="cls-5" d="M118.43,125.75V126h-.05a.39.39,0,0,0-.41.44v.65h-.24v-1.3H118V126A.49.49,0,0,1,118.43,125.75Z" transform="translate(0.06 -0.92)"/><path class="cls-5" d="M121.58,126.31v.75h-.24v-.72c0-.26-.12-.38-.33-.38a.38.38,0,0,0-.4.43v.67h-.23v-.72c0-.26-.13-.38-.34-.38s-.39.15-.39.43v.67h-.24v-1.3h.23V126a.52.52,0,0,1,.45-.2.47.47,0,0,1,.45.24.59.59,0,0,1,.51-.24A.5.5,0,0,1,121.58,126.31Z" transform="translate(0.06 -0.92)"/><path class="cls-5" d="M123.21,126.49h-1.07a.45.45,0,0,0,.48.38.49.49,0,0,0,.38-.16l.13.15a.66.66,0,0,1-.52.21.65.65,0,0,1-.7-.66.64.64,0,0,1,.65-.66.63.63,0,0,1,.65.67Zm-1.07-.17H123a.4.4,0,0,0-.42-.37A.41.41,0,0,0,122.14,126.32Z" transform="translate(0.06 -0.92)"/><path class="cls-9" d="M140.14,125.56v.6H141v.21h-.86v.69h-.25v-1.72h1.22v.22Z" transform="translate(0.06 -0.92)"/><path class="cls-9" d="M141.26,126.41a.68.68,0,1,1,.68.66A.65.65,0,0,1,141.26,126.41Zm1.12,0a.44.44,0,1,0-.44.46A.43.43,0,0,0,142.38,126.41Z" transform="translate(0.06 -0.92)"/><path class="cls-9" d="M143.66,125.75V126h-.06a.39.39,0,0,0-.41.44v.65H143v-1.3h.23V126A.51.51,0,0,1,143.66,125.75Z" transform="translate(0.06 -0.92)"/><path class="cls-9" d="M145.19,125.76v1.12a.6.6,0,0,1-.68.67,1,1,0,0,1-.63-.19l.12-.19a.76.76,0,0,0,.5.17c.31,0,.45-.14.45-.43v-.11a.58.58,0,0,1-.47.21.63.63,0,1,1,0-1.26.6.6,0,0,1,.48.21v-.2Zm-.23.62a.46.46,0,1,0-.45.42A.42.42,0,0,0,145,126.38Z" transform="translate(0.06 -0.92)"/><path class="cls-9" d="M145.52,126.41a.68.68,0,1,1,.68.66A.65.65,0,0,1,145.52,126.41Zm1.12,0a.44.44,0,1,0-.44.46A.43.43,0,0,0,146.64,126.41Z" transform="translate(0.06 -0.92)"/><path class="cls-9" d="M148,127a.48.48,0,0,1-.29.09.37.37,0,0,1-.41-.4V126H147v-.19h.23v-.28h.23v.28h.38V126h-.38v.71a.2.2,0,0,0,.21.22.29.29,0,0,0,.18-.07Z" transform="translate(0.06 -0.92)"/><path class="cls-9" d="M150.33,125.94c0,.38-.27.6-.72.6h-.43v.52h-.25v-1.72h.68C150.06,125.34,150.33,125.57,150.33,125.94Zm-.25,0c0-.24-.16-.38-.48-.38h-.42v.77h.42C149.92,126.33,150.08,126.19,150.08,125.94Z" transform="translate(0.06 -0.92)"/><path class="cls-9" d="M151.68,126.28v.78h-.22v-.17a.49.49,0,0,1-.43.18c-.3,0-.48-.15-.48-.38s.13-.38.52-.38h.38v0c0-.2-.12-.32-.35-.32a.7.7,0,0,0-.42.14l-.1-.17a.87.87,0,0,1,.54-.17C151.48,125.75,151.68,125.92,151.68,126.28Zm-.23.38v-.18h-.37c-.23,0-.3.09-.3.2s.11.21.29.21A.38.38,0,0,0,151.45,126.66Z" transform="translate(0.06 -0.92)"/><path class="cls-9" d="M152,126.92l.1-.18a.92.92,0,0,0,.46.13c.22,0,.31-.07.31-.18,0-.29-.83,0-.83-.55,0-.23.21-.39.55-.39a.86.86,0,0,1,.47.12l-.1.18a.75.75,0,0,0-.38-.1c-.2,0-.3.08-.3.18,0,.3.83.05.83.56,0,.23-.22.38-.57.38A.91.91,0,0,1,152,126.92Z" transform="translate(0.06 -0.92)"/><path class="cls-9" d="M153.2,126.92l.1-.18a.92.92,0,0,0,.46.13c.22,0,.31-.07.31-.18,0-.29-.83,0-.83-.55,0-.23.21-.39.55-.39a.86.86,0,0,1,.47.12l-.1.18a.75.75,0,0,0-.38-.1c-.2,0-.31.08-.31.18,0,.3.83.05.83.56,0,.23-.21.38-.56.38A.91.91,0,0,1,153.2,126.92Z" transform="translate(0.06 -0.92)"/><path class="cls-9" d="M156.56,125.76l-.49,1.3h-.23l-.38-1-.38,1h-.23l-.48-1.3h.22l.38,1,.4-1h.2l.38,1,.39-1Z" transform="translate(0.06 -0.92)"/><path class="cls-9" d="M156.64,126.41a.68.68,0,1,1,.68.66A.65.65,0,0,1,156.64,126.41Zm1.12,0a.44.44,0,1,0-.44.46A.43.43,0,0,0,157.76,126.41Z" transform="translate(0.06 -0.92)"/><path class="cls-9" d="M159,125.75V126H159a.39.39,0,0,0-.41.44v.65h-.24v-1.3h.23V126A.51.51,0,0,1,159,125.75Z" transform="translate(0.06 -0.92)"/><path class="cls-9" d="M160.55,125.24v1.82h-.23v-.21a.53.53,0,0,1-.46.22.66.66,0,1,1,0-1.32.55.55,0,0,1,.45.21v-.72Zm-.23,1.17a.45.45,0,1,0-.44.46A.43.43,0,0,0,160.32,126.41Z" transform="translate(0.06 -0.92)"/><path class="cls-9" d="M161.77,125.8c0-.16-.13-.27-.35-.27a.52.52,0,0,0-.44.2l-.18-.13a.77.77,0,0,1,.64-.27c.35,0,.58.16.58.43s-.43.44-.43.76h-.25C161.34,126.13,161.77,126.08,161.77,125.8Zm-.46,1.12a.15.15,0,0,1,.16-.16.15.15,0,0,1,.15.16.15.15,0,0,1-.15.15A.15.15,0,0,1,161.31,126.92Z" transform="translate(0.06 -0.92)"/><path class="cls-5" d="M101,126.88a.19.19,0,0,1-.1,0l-.45-.37a.16.16,0,0,1,.2-.24l.34.27.77-.84a.16.16,0,1,1,.23.22l-.87.94A.15.15,0,0,1,101,126.88Z" transform="translate(0.06 -0.92)"/><path class="cls-4" d="M157.44,82.89a1.3,1.3,0,0,0,.79-1.21,1.24,1.24,0,1,0-2.48,0,1.31,1.31,0,0,0,.79,1.22,2.25,2.25,0,0,0-1.82,2.34l4.51,0A2.24,2.24,0,0,0,157.44,82.89Z" transform="translate(0.06 -0.92)"/><path class="cls-5" d="M167.27,28.56h4.54a.26.26,0,0,0,0-.52h-4.54a.26.26,0,0,0,0,.52Z" transform="translate(0.06 -0.92)"/><path class="cls-5" d="M167.27,30h4.54a.26.26,0,0,0,0-.52h-4.54a.26.26,0,0,0,0,.52Z" transform="translate(0.06 -0.92)"/><path class="cls-5" d="M167.27,31.4h4.54a.27.27,0,0,0,0-.53h-4.54a.27.27,0,0,0,0,.53Z" transform="translate(0.06 -0.92)"/><path class="cls-9" d="M164.71,142.73a2.66,2.66,0,0,1,.19,1.15,3.78,3.78,0,0,1,.52-1.3c.1-.15.25-.31.42-.27s.23.26.24.44a2.86,2.86,0,0,1-.33,1.4,3.1,3.1,0,0,1,1.2-.92.27.27,0,0,1,.26,0c.09,0,.09.18.07.29a2.39,2.39,0,0,1-1.46,1.85l-.26,0a2.23,2.23,0,0,1-1.61-2.56c0-.21.16-.45.37-.45S164.64,142.55,164.71,142.73Z" transform="translate(0.06 -0.92)"/><path class="cls-6" d="M170.38,154a7.07,7.07,0,0,0-2.4-1,9.83,9.83,0,0,0,.07-5.27,5.05,5.05,0,0,0-.9-1.9,2.6,2.6,0,0,0-1.81-1,2.54,2.54,0,0,0-2,.92l-.89,2a6.55,6.55,0,0,0-.1.89,10.64,10.64,0,0,0,1.29,5.69,6,6,0,0,0-1.62,4.78h10.53A5.74,5.74,0,0,0,170.38,154Z" transform="translate(0.06 -0.92)"/><path class="cls-5" d="M163.17,155a.63.63,0,0,1,.08-.11c.06-.07.14-.18.26-.3a5.3,5.3,0,0,1,1.17-.89,5.54,5.54,0,0,1,2.08-.65,5,5,0,0,1,4.72,2,5.19,5.19,0,0,1,.94,2,4.62,4.62,0,0,1,.16,1.45,2.77,2.77,0,0,1,0,.39l0,.14a6.64,6.64,0,0,0-.19-2,5.63,5.63,0,0,0-1-1.89,5.16,5.16,0,0,0-2-1.59,5.34,5.34,0,0,0-2.57-.37,5.7,5.7,0,0,0-2,.61A6.88,6.88,0,0,0,163.17,155Z" transform="translate(0.06 -0.92)"/><path class="cls-5" d="M162.29,149.44a3,3,0,0,1,0-.69,5.79,5.79,0,0,1,.29-1.66,3.35,3.35,0,0,1,.9-1.42,1.39,1.39,0,0,1,.59-.37s-.22.15-.51.45a3.66,3.66,0,0,0-.83,1.39,6.85,6.85,0,0,0-.32,1.62A4,4,0,0,1,162.29,149.44Z" transform="translate(0.06 -0.92)"/><path class="cls-5" d="M168.38,157.83a9.13,9.13,0,0,1,1-1,9.78,9.78,0,0,1,1-1,4.34,4.34,0,0,1-.9,1.07A4.75,4.75,0,0,1,168.38,157.83Z" transform="translate(0.06 -0.92)"/><path class="cls-5" d="M167.21,157.22a3.54,3.54,0,0,1,.17-1,3.34,3.34,0,0,1,.33-1,3.68,3.68,0,0,1-.18,1A3.51,3.51,0,0,1,167.21,157.22Z" transform="translate(0.06 -0.92)"/><path class="cls-5" d="M164.08,156.06a4,4,0,0,1,.92,2,7.79,7.79,0,0,1-.47-1A6.91,6.91,0,0,1,164.08,156.06Z" transform="translate(0.06 -0.92)"/><path class="cls-5" d="M167.46,151.18a5.77,5.77,0,0,1,.72-1.07,5,5,0,0,1,.84-1,5.43,5.43,0,0,1-.72,1.07A5,5,0,0,1,167.46,151.18Z" transform="translate(0.06 -0.92)"/><path class="cls-5" d="M166.72,147.91a7,7,0,0,1,.81-1.31,8.29,8.29,0,0,1,.93-1.22,6.92,6.92,0,0,1-.8,1.31A6.79,6.79,0,0,1,166.72,147.91Z" transform="translate(0.06 -0.92)"/><path class="cls-5" d="M165.53,148.77a3.77,3.77,0,0,1,.15,1.11,3.6,3.6,0,0,1,0,1.11,7.73,7.73,0,0,1-.14-2.22Z" transform="translate(0.06 -0.92)"/><path class="cls-5" d="M160.8,150.26a6.53,6.53,0,0,1,1.49.75,7.32,7.32,0,0,1,1.37,1,11.92,11.92,0,0,1-1.45-.83A12.76,12.76,0,0,1,160.8,150.26Z" transform="translate(0.06 -0.92)"/><g class="cls-10"><path d="M164.59,153.07a3.73,3.73,0,0,1,1.71-.42,2.17,2.17,0,0,1,1.72.48v0a6.45,6.45,0,0,0-4.33,1.34A1.7,1.7,0,0,1,164.59,153.07Z" transform="translate(0.06 -0.92)"/></g><path class="cls-9" d="M169.6,132.54a2,2,0,0,1,.92,0,3.15,3.15,0,0,1-1-.53c-.11-.09-.22-.22-.17-.35s.22-.15.36-.14a2.16,2.16,0,0,1,1.07.38,2.5,2.5,0,0,1-.61-1,.26.26,0,0,1,0-.21c0-.06.15-.05.23,0a1.89,1.89,0,0,1,1.32,1.31v.2a1.77,1.77,0,0,1-2.17,1c-.16,0-.34-.16-.33-.33S169.45,132.58,169.6,132.54Z" transform="translate(0.06 -0.92)"/><path class="cls-9" d="M190.85,119.18a2,2,0,0,1,0,.92,3.17,3.17,0,0,1,.62-.92c.1-.1.24-.2.36-.14s.14.24.11.37a2.07,2.07,0,0,1-.47,1,2.67,2.67,0,0,1,1.07-.52.23.23,0,0,1,.2,0c.06.06,0,.15,0,.23a1.92,1.92,0,0,1-1.43,1.2h-.2a1.8,1.8,0,0,1-.86-1,1.82,1.82,0,0,1,0-1.28c.07-.15.2-.32.36-.29S190.82,119,190.85,119.18Z" transform="translate(0.06 -0.92)"/><path class="cls-6" d="M176.05,146.51l.46,0c.27-3-.64-6,.28-8.87l-.13.16a6.84,6.84,0,0,1-3.3-.3,4.13,4.13,0,0,1-2.39-2.19,3,3,0,0,1,.51-3.11,3.53,3.53,0,0,1,4.18-.28,10,10,0,0,1,3,3.11,5.71,5.71,0,0,1,1.44-.82,16.6,16.6,0,0,1-3.32-6.46c-.5-2.62.49-5.73,2.94-6.82a5.49,5.49,0,0,1,6.18,1.65c.12.14.21.28.32.43l0-.14a3.81,3.81,0,0,1,2-2.08A3.28,3.28,0,0,1,191,121a2.8,2.8,0,0,1,1.41,2.43,3.12,3.12,0,0,1-1.82,2.58,5,5,0,0,1-3.12.29,9.59,9.59,0,0,1,0,2.78,15.87,15.87,0,0,1-2.38,5.83,5.84,5.84,0,0,1,.86.7c1.89,2,2,5.12,1,7.66s-3.68,4.4-5.54,6.39h0a12.09,12.09,0,0,1,1.43,4.46,4.08,4.08,0,0,1,3.61-2.29,2,2,0,0,1,2,1.13,2.06,2.06,0,0,1-.63,1.93,5.21,5.21,0,0,1-4.77,1.39l0-.5a21,21,0,0,1-.09,3.41h-12S167.66,146.21,176.05,146.51Z" transform="translate(0.06 -0.92)"/><rect class="cls-7" x="157.09" y="159.16" width="28.44" height="5" transform="translate(342.69 322.4) rotate(180)"/><polygon class="cls-7" points="183.47 162.25 180.01 177.19 163.06 177.19 159.28 162.25 183.47 162.25"/><path class="cls-5" d="M157.11,164.17c0,.05,6.42.1,14.33.1s14.33-.05,14.33-.1-6.42-.1-14.33-.1S157.11,164.11,157.11,164.17Z" transform="translate(0.06 -0.92)"/><path class="cls-5" d="M173.82,147l.17-.1a4,4,0,0,1,.5-.21,5.12,5.12,0,0,1,2-.23,6.12,6.12,0,0,1,2.78,1,7.39,7.39,0,0,1,2.39,2.69,10.66,10.66,0,0,1,1.15,3.41,17.48,17.48,0,0,1,.19,2.92c0,.84,0,1.51,0,2,0,.22,0,.39,0,.53a.76.76,0,0,1,0,.19,1.49,1.49,0,0,1,0-.19v-2.51a18.79,18.79,0,0,0-.23-2.9,10.62,10.62,0,0,0-1.14-3.36,7.52,7.52,0,0,0-2.33-2.64,6.07,6.07,0,0,0-2.71-1,5,5,0,0,0-2,.17C174.06,146.9,173.83,147,173.82,147Z" transform="translate(0.06 -0.92)"/><path class="cls-5" d="M176.37,140.68s0-.05,0-.15a2.19,2.19,0,0,1,0-.4,7.16,7.16,0,0,1,1-3.57,6.49,6.49,0,0,1,.81-1.06,4.72,4.72,0,0,1,2.47-1.39A5.5,5.5,0,0,1,182,134a6.66,6.66,0,0,1,2.19.51,7.58,7.58,0,0,1,1.33.72,3.39,3.39,0,0,1,.33.25l.11.09a5.22,5.22,0,0,1-.47-.28,8.23,8.23,0,0,0-1.34-.67,6.56,6.56,0,0,0-2.16-.48,5.77,5.77,0,0,0-1.29.11,4.72,4.72,0,0,0-1.3.5,4.83,4.83,0,0,0-1.09.85,5.43,5.43,0,0,0-.79,1,6.9,6.9,0,0,0-.85,2,7.39,7.39,0,0,0-.23,1.47C176.38,140.48,176.38,140.67,176.37,140.68Z" transform="translate(0.06 -0.92)"/><path class="cls-5" d="M187.54,128.06a6,6,0,0,1-.1-1c0-.3-.06-.65-.12-1a4.8,4.8,0,0,0-.34-1.21,12.21,12.21,0,0,0-1.1-2c-.33-.49-.58-.76-.56-.78s.08,0,.2.17a5.85,5.85,0,0,1,.45.55,9.86,9.86,0,0,1,1.16,2,4.74,4.74,0,0,1,.33,1.25,8.78,8.78,0,0,1,.09,1A6.82,6.82,0,0,1,187.54,128.06Z" transform="translate(0.06 -0.92)"/><path class="cls-5" d="M186,154.87a3.67,3.67,0,0,1,.82.6,3.48,3.48,0,0,1,.71.72,6.31,6.31,0,0,1-1.53-1.32Z" transform="translate(0.06 -0.92)"/><path class="cls-5" d="M187,153.88a3,3,0,0,1,1-.18,3,3,0,0,1,1,0,3.67,3.67,0,0,1-1,.18A3.73,3.73,0,0,1,187,153.88Z" transform="translate(0.06 -0.92)"/><path class="cls-5" d="M186.23,152.12a5.62,5.62,0,0,1,.57-.79,7,7,0,0,1,.58-.78,2,2,0,0,1-.45.88A2.08,2.08,0,0,1,186.23,152.12Z" transform="translate(0.06 -0.92)"/><path class="cls-5" d="M184.89,151.31a4.31,4.31,0,0,1-.19,1.15,4.72,4.72,0,0,1-.34,1.12,4.1,4.1,0,0,1,.18-1.15A4,4,0,0,1,184.89,151.31Z" transform="translate(0.06 -0.92)"/><path class="cls-5" d="M184,155.34s.16-.25.42-.49.5-.4.53-.36-.16.25-.42.48S184,155.37,184,155.34Z" transform="translate(0.06 -0.92)"/><path class="cls-5" d="M179.81,154.56s.2-.32.51-.65.6-.57.63-.54a2.33,2.33,0,0,1-.51.65C180.12,154.35,179.84,154.59,179.81,154.56Z" transform="translate(0.06 -0.92)"/><path class="cls-5" d="M178.9,150.73a2.34,2.34,0,0,1,.38-.78,2.4,2.4,0,0,1,.53-.69,2.8,2.8,0,0,1-.39.78A2.48,2.48,0,0,1,178.9,150.73Z" transform="translate(0.06 -0.92)"/><path class="cls-5" d="M176.24,147.61a3.56,3.56,0,0,1,.09,1,2.79,2.79,0,0,1-.07,1,3.46,3.46,0,0,1-.09-1A2.87,2.87,0,0,1,176.24,147.61Z" transform="translate(0.06 -0.92)"/><path class="cls-5" d="M170.65,148.67a6.89,6.89,0,0,1,.8.92,8,8,0,0,1,.76.95,3.69,3.69,0,0,1-.89-.85A3.78,3.78,0,0,1,170.65,148.67Z" transform="translate(0.06 -0.92)"/><path class="cls-5" d="M169.94,154.11a3.44,3.44,0,0,1,1,.11,3.17,3.17,0,0,1,1,.27,3.5,3.5,0,0,1-1-.11A3.4,3.4,0,0,1,169.94,154.11Z" transform="translate(0.06 -0.92)"/><path class="cls-5" d="M175.73,156a2.87,2.87,0,0,1,.38-1.09,3.08,3.08,0,0,1,.66-.95,8.06,8.06,0,0,1-.51,1A9,9,0,0,1,175.73,156Z" transform="translate(0.06 -0.92)"/><path class="cls-5" d="M173.8,153.4a2,2,0,0,1-.1-.81,2.3,2.3,0,0,1,.06-.81,2,2,0,0,1,.1.81A2.26,2.26,0,0,1,173.8,153.4Z" transform="translate(0.06 -0.92)"/><path class="cls-5" d="M180,158a1.77,1.77,0,0,1,.34-.84,1.85,1.85,0,0,1,.6-.68,4.76,4.76,0,0,1-.46.76A4.6,4.6,0,0,1,180,158Z" transform="translate(0.06 -0.92)"/><path class="cls-5" d="M173.42,158.38a5.28,5.28,0,0,1-.72-1.61,2.22,2.22,0,0,1,.43.77A2.48,2.48,0,0,1,173.42,158.38Z" transform="translate(0.06 -0.92)"/><path class="cls-5" d="M183.7,146.24a4.1,4.1,0,0,1,1.1,0,3.57,3.57,0,0,1,1.1.12,4.14,4.14,0,0,1-1.1,0A3.57,3.57,0,0,1,183.7,146.24Z" transform="translate(0.06 -0.92)"/><path class="cls-5" d="M186.1,142.17a5.71,5.71,0,0,1,1.05-.84,5.62,5.62,0,0,1,1.15-.71,5.26,5.26,0,0,1-1.05.84A5.62,5.62,0,0,1,186.1,142.17Z" transform="translate(0.06 -0.92)"/><path class="cls-5" d="M185.85,136.94a7.13,7.13,0,0,1,.86-.56,7.38,7.38,0,0,1,.86-.57,2.37,2.37,0,0,1-.77.7A2.33,2.33,0,0,1,185.85,136.94Z" transform="translate(0.06 -0.92)"/><path class="cls-5" d="M183.16,135.09a5.42,5.42,0,0,1,.23-1.27,6.15,6.15,0,0,1,.39-1.24,5,5,0,0,1-.23,1.28A5.29,5.29,0,0,1,183.16,135.09Z" transform="translate(0.06 -0.92)"/><path class="cls-5" d="M178.67,133.78a2.57,2.57,0,0,1,.52.76,2.9,2.9,0,0,1,.39.85,5.22,5.22,0,0,1-.91-1.61Z" transform="translate(0.06 -0.92)"/><path class="cls-5" d="M174.8,142.6s.54.35,1.22.76,1.25.7,1.23.74a4.14,4.14,0,0,1-1.32-.6A4.23,4.23,0,0,1,174.8,142.6Z" transform="translate(0.06 -0.92)"/><path class="cls-5" d="M181.07,144.58a3.26,3.26,0,0,1,.78-.56,2.65,2.65,0,0,1,.85-.43,2.81,2.81,0,0,1-.77.56A2.64,2.64,0,0,1,181.07,144.58Z" transform="translate(0.06 -0.92)"/><path class="cls-5" d="M182.13,140.36s.37-.43.75-1,.58-1.1.63-1.09a2.87,2.87,0,0,1-.5,1.17A2.58,2.58,0,0,1,182.13,140.36Z" transform="translate(0.06 -0.92)"/><path class="cls-5" d="M180.07,139.41a3.17,3.17,0,0,1,0-1,3.67,3.67,0,0,1,.13-1,3.07,3.07,0,0,1,0,1A3.37,3.37,0,0,1,180.07,139.41Z" transform="translate(0.06 -0.92)"/><path class="cls-5" d="M178.93,143.58a3.06,3.06,0,0,1-.2-1,3.13,3.13,0,0,1,0-1.05,3.67,3.67,0,0,1,.2,1A3.93,3.93,0,0,1,178.93,143.58Z" transform="translate(0.06 -0.92)"/><path class="cls-5" d="M175.75,131a9.32,9.32,0,0,1,.33,1.16,8.65,8.65,0,0,1,.34,1.17,4.63,4.63,0,0,1-.67-2.33Z" transform="translate(0.06 -0.92)"/><path class="cls-5" d="M173.51,138.34a8,8,0,0,1,.92-.67,8.35,8.35,0,0,1,.92-.66,2.76,2.76,0,0,1-.83.79A2.91,2.91,0,0,1,173.51,138.34Z" transform="translate(0.06 -0.92)"/><path class="cls-5" d="M170.46,136.09a9.32,9.32,0,0,1,1.12-.22,5.85,5.85,0,0,1,1.13-.2,3.16,3.16,0,0,1-1.1.35A3.05,3.05,0,0,1,170.46,136.09Z" transform="translate(0.06 -0.92)"/><path class="cls-5" d="M173.43,133.58s.31.1.64.31.57.41.55.45-.31-.1-.64-.31S173.4,133.62,173.43,133.58Z" transform="translate(0.06 -0.92)"/><path class="cls-5" d="M172,130.87a1.94,1.94,0,0,1,.73.59,2,2,0,0,1,.49.8s-.28-.31-.62-.69A5.2,5.2,0,0,1,172,130.87Z" transform="translate(0.06 -0.92)"/><path class="cls-5" d="M169.93,133.45A33.29,33.29,0,0,1,172,134a2.58,2.58,0,0,1-1.06-.14A2.69,2.69,0,0,1,169.93,133.45Z" transform="translate(0.06 -0.92)"/><path class="cls-5" d="M183.89,130s.41-.62.91-1.37.88-1.39.92-1.37a5.83,5.83,0,0,1-.79,1.46A5.67,5.67,0,0,1,183.89,130Z" transform="translate(0.06 -0.92)"/><path class="cls-5" d="M183,126.81a4.31,4.31,0,0,1,.07-1.19,4.36,4.36,0,0,1,.24-1.16,4.5,4.5,0,0,1-.08,1.18A5.2,5.2,0,0,1,183,126.81Z" transform="translate(0.06 -0.92)"/><path class="cls-5" d="M179.89,127.3c.05,0,.18.6.49,1.3s.66,1.21.62,1.23a3.07,3.07,0,0,1-.77-1.17A3.13,3.13,0,0,1,179.89,127.3Z" transform="translate(0.06 -0.92)"/><path class="cls-5" d="M176.25,128.06s.49.51,1.12,1.09,1.18,1,1.16,1a6.59,6.59,0,0,1-2.28-2.13Z" transform="translate(0.06 -0.92)"/><path class="cls-5" d="M177.66,121.5c.05,0,.19.66.44,1.46s.51,1.43.46,1.45a4.81,4.81,0,0,1-.62-1.41A4.73,4.73,0,0,1,177.66,121.5Z" transform="translate(0.06 -0.92)"/><path class="cls-5" d="M181.86,119.34a4.69,4.69,0,0,1,.15,1.17,4.09,4.09,0,0,1,0,1.18,4.79,4.79,0,0,1-.15-1.17A4.06,4.06,0,0,1,181.86,119.34Z" transform="translate(0.06 -0.92)"/><path class="cls-5" d="M190.52,124.89a5.36,5.36,0,0,1,.9.07,4.43,4.43,0,0,1,.91.08,1.88,1.88,0,0,1-.92.07A1.9,1.9,0,0,1,190.52,124.89Z" transform="translate(0.06 -0.92)"/><path class="cls-5" d="M190.27,122.72a6,6,0,0,1,1.24-.74,6.44,6.44,0,0,1,1.31-.6,6.38,6.38,0,0,1-1.24.74A6.73,6.73,0,0,1,190.27,122.72Z" transform="translate(0.06 -0.92)"/><path class="cls-5" d="M187.92,122.8a4.21,4.21,0,0,1,.27-1.1,3.85,3.85,0,0,1,.42-1.06,4.21,4.21,0,0,1-.27,1.1A4.25,4.25,0,0,1,187.92,122.8Z" transform="translate(0.06 -0.92)"/><g class="cls-10"><path d="M181.36,149.65a3.68,3.68,0,0,0-1.6-2.92,3.57,3.57,0,0,0-3.32-.22,5.2,5.2,0,0,1,2.91,1,8.23,8.23,0,0,1,2,2.15" transform="translate(0.06 -0.92)"/></g><g class="cls-10"><path d="M185.07,135.09a3.22,3.22,0,0,0-2.29-1.76,3.07,3.07,0,0,0-2.71,1,4.47,4.47,0,0,1,2.66-.21,7.16,7.16,0,0,1,2.34,1" transform="translate(0.06 -0.92)"/></g><g class="cls-10"><path d="M187.52,126.44a2.51,2.51,0,0,0,.16-2.2A2.19,2.19,0,0,0,186.1,123a6.66,6.66,0,0,1,1.4,3.5" transform="translate(0.06 -0.92)"/></g><path class="cls-5" d="M172.35,147.69s-.13.12-.33.35a6.51,6.51,0,0,0-.72,1.06,11.55,11.55,0,0,0-1.05,4.08,18.14,18.14,0,0,0,.22,4.24c.08.53.16,1,.22,1.27a2.31,2.31,0,0,1,.07.47,2.92,2.92,0,0,1-.14-.46c-.08-.29-.18-.72-.28-1.26a17.07,17.07,0,0,1-.26-4.27,10.68,10.68,0,0,1,1.11-4.13,5.67,5.67,0,0,1,.78-1A1.21,1.21,0,0,1,172.35,147.69Z" transform="translate(0.06 -0.92)"/><path class="cls-5" d="M185.54,159.16h-.34l-1,0-3.59,0-11.84,0-11.7,0,.06-.06c0,1.54,0,2.79,0,3.66v1.26a.31.31,0,0,1,0,.09.31.31,0,0,1,0-.09v-.26l0-1c0-.87,0-2.12,0-3.66v-.06h.05l11.7,0,11.84,0,3.59,0h1.32Z" transform="translate(0.06 -0.92)"/><path class="cls-1" d="M37,85.92a1.75,1.75,0,1,1-1.75-1.73A1.74,1.74,0,0,1,37,85.92Z" transform="translate(0.06 -0.92)"/><path class="cls-5" d="M37,85.92s0-.16-.1-.41a1.72,1.72,0,0,0-.64-.91,1.68,1.68,0,0,0-1.57-.21,1.63,1.63,0,0,0,0,3.06,1.69,1.69,0,0,0,1.57-.22,1.74,1.74,0,0,0,.64-.9c.08-.26.07-.41.1-.41a.84.84,0,0,1,0,.43,1.69,1.69,0,0,1-.63,1,1.82,1.82,0,0,1-1.73.29,1.82,1.82,0,0,1,0-3.44,1.82,1.82,0,0,1,1.73.28,1.71,1.71,0,0,1,.63,1A.85.85,0,0,1,37,85.92Z" transform="translate(0.06 -0.92)"/><path class="cls-1" d="M24.11,88a9.89,9.89,0,1,0-10.83-9A9.91,9.91,0,0,0,24.11,88Z" transform="translate(0.06 -0.92)"/><path class="cls-5" d="M24.11,88l-.16,0-.47,0-.35,0H22.7a9,9,0,0,1-1.05-.1,9.6,9.6,0,0,1-2.76-.83,10,10,0,0,1-5.35-6.25,10,10,0,0,1-.06-5.27,10.19,10.19,0,0,1,2-3.86,10.9,10.9,0,0,1,1.07-1.08A9.56,9.56,0,0,1,19.18,69a10.62,10.62,0,0,1,3.12-.8,10.5,10.5,0,0,1,3.22.23,9.67,9.67,0,0,1,2.89,1.18,11.12,11.12,0,0,1,1.25.87,10.9,10.9,0,0,1,2,2.19,10.29,10.29,0,0,1,.69,1.25,9.93,9.93,0,0,1,.9,5.19,10,10,0,0,1-4.13,7.1,9.19,9.19,0,0,1-2.57,1.31,6.47,6.47,0,0,1-1,.29l-.41.09-.35,0-.47.06h-.16s.05,0,.16,0l.47-.07.34-.06a4,4,0,0,0,.41-.1,6.41,6.41,0,0,0,1-.3A9.42,9.42,0,0,0,29,86.13a9.85,9.85,0,0,0,2.56-2.74A9.63,9.63,0,0,0,33,79.11a9.82,9.82,0,0,0-.9-5.08,9.72,9.72,0,0,0-.68-1.22,10.41,10.41,0,0,0-.88-1.13,11.26,11.26,0,0,0-1-1,11.68,11.68,0,0,0-1.23-.85,9.52,9.52,0,0,0-2.83-1.15,10.36,10.36,0,0,0-3.15-.22,10.53,10.53,0,0,0-3.05.78,9.57,9.57,0,0,0-2.58,1.63,11.67,11.67,0,0,0-1.05,1.06,10.77,10.77,0,0,0-.85,1.19,9.47,9.47,0,0,0-.66,1.26,9.34,9.34,0,0,0-.45,1.32,9.69,9.69,0,0,0,2.24,9.11,10.09,10.09,0,0,0,3,2.25,9.5,9.5,0,0,0,2.72.85,6.15,6.15,0,0,0,1.05.12l.42,0H24C24.06,88,24.11,88,24.11,88Z" transform="translate(0.06 -0.92)"/><polygon class="cls-7" points="23.3 80.81 19.25 77.84 20.29 76.44 23.01 78.43 26.71 74.01 28.06 75.13 23.3 80.81"/><polygon class="cls-4" points="26.37 165.91 24.21 184.08 27.53 184.08 33.47 165.91 26.37 165.91"/><polygon class="cls-4" points="38.48 158.95 36.33 177.12 39.64 177.12 45.58 158.95 38.48 158.95"/><polygon class="cls-4" points="83.32 165.91 85.67 184.08 82.06 184.08 75.58 165.91 83.32 165.91"/><polygon class="cls-4" points="72.06 159.4 74.42 177.57 70.8 177.57 64.33 159.4 72.06 159.4"/><path class="cls-6" d="M36.23,100s-9.06.64-15.14,3.74c-4.77,2.44-7.09,5.85-8,14.44s-7,10.35-7.18,13.29,1.33,15.14,12,39.68A3.1,3.1,0,0,0,20.72,173H57.65V99.44Z" transform="translate(0.06 -0.92)"/><path class="cls-6" d="M71.43,100s9.06.64,15.14,3.74c4.77,2.44,7.08,5.85,8,14.44s7,10.35,7.18,13.29-1.34,15.22-12.09,39.93A2.7,2.7,0,0,1,87.21,173H50V99.44Z" transform="translate(0.06 -0.92)"/><path class="cls-5" d="M80.56,160.68a4.16,4.16,0,0,1,.66-.12,6.22,6.22,0,0,1,1.82.08,4.64,4.64,0,0,1,2.36,1.29,7.3,7.3,0,0,1,1.66,2.83,16.44,16.44,0,0,1,.71,3.2,25.93,25.93,0,0,1,.2,2.67c0,.75,0,1.37,0,1.79a4.28,4.28,0,0,1,0,.66,3.44,3.44,0,0,1,0-.66c0-.42,0-1-.08-1.79S87.7,169,87.57,168a16.55,16.55,0,0,0-.72-3.16,7.53,7.53,0,0,0-1.59-2.76A4.67,4.67,0,0,0,83,160.79,9.13,9.13,0,0,0,80.56,160.68Z" transform="translate(0.06 -0.92)"/><path class="cls-5" d="M84.25,150.22c0,.06-13.71.11-30.62.11S23,150.28,23,150.22s13.7-.11,30.62-.11S84.25,150.16,84.25,150.22Z" transform="translate(0.06 -0.92)"/><path class="cls-5" d="M25.72,160.16a4.29,4.29,0,0,1-.63.07,6.46,6.46,0,0,0-.73.12,4.32,4.32,0,0,0-.45.12,2.52,2.52,0,0,0-.48.17,5,5,0,0,0-2,1.47,7.33,7.33,0,0,0-1.32,2.75,14.3,14.3,0,0,0-.42,3.06,22.71,22.71,0,0,0,0,2.53c.05.73.12,1.31.17,1.71a6.33,6.33,0,0,1,.07.63,2.34,2.34,0,0,1-.15-.62c-.08-.4-.17-1-.24-1.7a19.94,19.94,0,0,1-.1-2.56,14.11,14.11,0,0,1,.42-3.1A7.26,7.26,0,0,1,21.27,162a5.05,5.05,0,0,1,2.1-1.49,3.33,3.33,0,0,1,.51-.16c.16,0,.31-.08.45-.1.29,0,.54-.08.75-.08A2.9,2.9,0,0,1,25.72,160.16Z" transform="translate(0.06 -0.92)"/><path class="cls-5" d="M25.72,160.16s0,0,0-.1l-.11-.29c-.09-.26-.23-.65-.38-1.15-.32-1-.72-2.46-1.2-4.27L22.33,148c-.63-2.4-1.32-5-2.16-7.76-.44-1.36-.86-2.69-1.4-3.92a9.06,9.06,0,0,0-.42-.89,8.92,8.92,0,0,0-.47-.86c-.33-.56-.64-1.12-1-1.64a8.46,8.46,0,0,0-2.3-2.6,6.68,6.68,0,0,0-2.82-1.05,7.85,7.85,0,0,0-4.33.62,9.68,9.68,0,0,0-1.4.82s0,0,.07-.07l.25-.2a6.17,6.17,0,0,1,1-.63,7.84,7.84,0,0,1,4.39-.69,6.73,6.73,0,0,1,2.91,1,8.64,8.64,0,0,1,2.36,2.64c.33.53.64,1.08,1,1.64q.26.42.48.87a6.9,6.9,0,0,1,.43.91,40.56,40.56,0,0,1,1.41,3.94c.84,2.73,1.53,5.37,2.14,7.77s1.15,4.56,1.61,6.38.84,3.28,1.13,4.29c.14.5.26.89.34,1.15l.09.3Z" transform="translate(0.06 -0.92)"/><path class="cls-5" d="M73.77,142.21H68l-15.74,0-10.87,0-6.06,0c-1,0-2.09,0-3.16.05a4.64,4.64,0,0,0-.77.09,5.76,5.76,0,0,0-.72.33c-.47.25-.94.53-1.4.82-.92.59-1.83,1.22-2.72,1.9A24.19,24.19,0,0,0,24,147.54a5.66,5.66,0,0,0-1,1.33,1.09,1.09,0,0,0-.11.38,2.26,2.26,0,0,0,.08.39l.21.85c.28,1.13.58,2.27.88,3.41s.63,2.3.95,3.46c.16.58.33,1.16.5,1.75.09.29.18.58.28.86a.69.69,0,0,0,0,.08s0,0,0,0h0l.22,0c.15,0,.3,0,.45,0,2.46.12,5,.14,7.5.18,10.14.12,19.81.13,28.59.11,4.39,0,8.57,0,12.48-.09,1.95,0,3.84-.05,5.65-.12l1.34-.07.32,0,.16,0a.19.19,0,0,0,.1-.05,1.88,1.88,0,0,0,.3-.54,19.62,19.62,0,0,0,.74-2.41c.41-1.59.74-3.13,1-4.58l.23-1.08a4.2,4.2,0,0,0,.15-1,3.65,3.65,0,0,0-.93-1.74,19.33,19.33,0,0,0-2.7-2.44c-.89-.69-1.73-1.29-2.48-1.84a13.78,13.78,0,0,0-2-1.38,6.59,6.59,0,0,0-1.7-.6,7.09,7.09,0,0,0-1.09-.16h-.38a3.64,3.64,0,0,1,.38,0,7.61,7.61,0,0,1,1.1.13,7.17,7.17,0,0,1,1.72.59,14.6,14.6,0,0,1,2,1.37c.75.54,1.59,1.14,2.48,1.82a20.22,20.22,0,0,1,2.74,2.45,2.55,2.55,0,0,1,.81,2.88c-.07.35-.14.71-.22,1.08-.3,1.45-.62,3-1,4.59a21,21,0,0,1-.74,2.43,1.93,1.93,0,0,1-.33.59.3.3,0,0,1-.18.1l-.17,0-.34,0c-.44,0-.89.06-1.35.08-1.81.07-3.7.1-5.65.14-3.91.06-8.08.09-12.48.1-8.79,0-18.45,0-28.59-.09-2.54,0-5-.06-7.51-.18l-.47,0-.24,0-.1,0s0,0,0-.06l-.06-.13c-.1-.3-.19-.59-.28-.88-.17-.59-.34-1.17-.5-1.75-.32-1.16-.63-2.32-1-3.46s-.6-2.29-.88-3.42l-.21-.85a2.44,2.44,0,0,1-.08-.45,1.24,1.24,0,0,1,.12-.45,5.91,5.91,0,0,1,1.07-1.39,25.67,25.67,0,0,1,2.6-2.22c.9-.68,1.81-1.31,2.74-1.9.46-.29.93-.57,1.42-.83a5.7,5.7,0,0,1,.75-.34,4.78,4.78,0,0,1,.82-.09c1.07-.06,2.13-.05,3.17-.05l6.06.05,10.87,0,15.74.09,4.27,0,1.12,0Z" transform="translate(0.06 -0.92)"/><path class="cls-5" d="M82.92,160.16a.45.45,0,0,1,0-.11l.09-.3c.08-.26.2-.64.32-1.15.27-1,.59-2.48,1-4.3l1.3-6.41c.49-2.41,1-5.06,1.77-7.81a31.66,31.66,0,0,1,1.3-4c.14-.31.3-.6.45-.9a7.82,7.82,0,0,1,.51-.84,18.07,18.07,0,0,1,1.1-1.56,10.54,10.54,0,0,1,2.61-2.37,7.4,7.4,0,0,1,2.91-1,7.82,7.82,0,0,1,4.36.7,6.72,6.72,0,0,1,1,.63l.25.19s.08.07.07.08a8.18,8.18,0,0,0-1.39-.82,7.92,7.92,0,0,0-4.3-.63,7.19,7.19,0,0,0-2.83,1A10,10,0,0,0,90.9,133c-.38.48-.74,1-1.09,1.54-.16.27-.35.54-.5.83s-.3.58-.43.89a34,34,0,0,0-1.29,3.92c-.72,2.74-1.28,5.39-1.79,7.8s-.94,4.58-1.33,6.4-.74,3.29-1,4.29c-.13.51-.27.89-.36,1.15l-.11.29A.39.39,0,0,1,82.92,160.16Z" transform="translate(0.06 -0.92)"/><path class="cls-5" d="M83.91,106.09c.06,0-1.87,8.12-4.31,18.1s-4.47,18.07-4.53,18.05,1.87-8.12,4.31-18.1S83.85,106.08,83.91,106.09Z" transform="translate(0.06 -0.92)"/><path class="cls-5" d="M23.27,108.67a1.68,1.68,0,0,1,.12.33l.31,1,1.07,3.58c.89,3,2.1,7.2,3.38,11.83s2.42,8.83,3.21,11.88c.38,1.51.7,2.74.92,3.62l.24,1a2.33,2.33,0,0,1,.07.35,1.4,1.4,0,0,1-.11-.34l-.28-1-1-3.6c-.84-3.05-2-7.24-3.27-11.86s-2.47-8.8-3.32-11.85c-.42-1.5-.76-2.72-1-3.59l-.26-1A1.9,1.9,0,0,1,23.27,108.67Z" transform="translate(0.06 -0.92)"/><path class="cls-5" d="M39.82,59.88a2.57,2.57,0,0,1,2.39-2.34A2.61,2.61,0,0,1,43.32,54a3.5,3.5,0,0,1,3.85.6,2.76,2.76,0,0,1,3-1.17,2.72,2.72,0,0,1,1.91,2.63,2.18,2.18,0,0,1,2.61,1.71,3.1,3.1,0,0,1-1.39,3,1.36,1.36,0,0,1,0,1.91,3.17,3.17,0,0,1-1.91.9L47,64.93a4.28,4.28,0,0,1-3.54.46,2.41,2.41,0,0,1-1.53-2.91A2.58,2.58,0,0,1,39.82,59.88Z" transform="translate(0.06 -0.92)"/><path class="cls-6" d="M39.86,59.38s0-.06.15-.15a2,2,0,0,1,.57-.28,2.16,2.16,0,0,1,1,0,2,2,0,0,1,1.15.67l-.14,0a2.66,2.66,0,0,1,.7-1.61,3.42,3.42,0,0,1,1.8-1,4,4,0,0,1,2.29.26,5.66,5.66,0,0,1,2,1.43,2.68,2.68,0,0,1,.63,1,1.42,1.42,0,0,1-.18,1.19,1.21,1.21,0,0,1-.46.41,1,1,0,0,1-.62.05,1.14,1.14,0,0,1-.78-.81,1.3,1.3,0,0,1,.2-1A1.68,1.68,0,0,1,49,58.9a3.06,3.06,0,0,1,1.75-.15A4,4,0,0,1,52.91,60a3.18,3.18,0,0,1,.41.54.73.73,0,0,1,.11.21,7.41,7.41,0,0,0-.58-.69,4,4,0,0,0-2.16-1.1,3,3,0,0,0-1.65.15,1.56,1.56,0,0,0-.68.57,1.17,1.17,0,0,0-.17.89,1,1,0,0,0,.65.66.8.8,0,0,0,.84-.38,1.19,1.19,0,0,0,.15-1,2.53,2.53,0,0,0-.58-1,4.62,4.62,0,0,0-4.12-1.64,3.23,3.23,0,0,0-1.7.94,2.49,2.49,0,0,0-.69,1.5l0,.2-.11-.16A1.86,1.86,0,0,0,41.55,59a2.14,2.14,0,0,0-.95,0A2.66,2.66,0,0,0,39.86,59.38Z" transform="translate(0.06 -0.92)"/><path class="cls-5" d="M44,64s0,0,0,.11a1,1,0,0,1-.23.27,1.26,1.26,0,0,1-.52.23,1.07,1.07,0,0,1-.76-.13L42,64.18l.46.14.48.15.61.17-.63,0a1.21,1.21,0,0,1-.76-2l.14.12a2.62,2.62,0,0,1-4.62-.76,2.42,2.42,0,0,1,.18-2,1.32,1.32,0,0,1,1.78-.52l-.12.16a1.8,1.8,0,0,1-.62-1.25A2.06,2.06,0,0,1,39.22,57a1.63,1.63,0,0,1,.89-.7,1.92,1.92,0,0,1,1-.06,2,2,0,0,1,1.16.68,1.1,1.1,0,0,1,.22.42s-.07-.15-.28-.38a1.9,1.9,0,0,0-1.12-.6,1.88,1.88,0,0,0-.9.08,1.49,1.49,0,0,0-.79.64,1.83,1.83,0,0,0-.24,1.14,1.64,1.64,0,0,0,.56,1.12l-.12.16a1.12,1.12,0,0,0-1.49.46,2.26,2.26,0,0,0-.15,1.86A2.43,2.43,0,0,0,40,63.53a2.48,2.48,0,0,0,2.2-1l.14.11a1.06,1.06,0,0,0-.22,1.17,1.09,1.09,0,0,0,.86.61l0,.13-.48-.15.06-.11a1,1,0,0,0,.67.14,1.09,1.09,0,0,0,.5-.2A1.28,1.28,0,0,0,44,64Z" transform="translate(0.06 -0.92)"/><path class="cls-5" d="M56.67,61.35s.17-.18.37-.55a2.57,2.57,0,0,0,.27-1.73,2.45,2.45,0,0,0-1.73-1.81,2.34,2.34,0,0,0-.75-.09.8.8,0,0,0-.64.28.34.34,0,0,0,.12.55,1.1,1.1,0,0,0,.77-.06,2.12,2.12,0,0,0,1.16-1.1,1.67,1.67,0,0,0-.11-1.45,2.5,2.5,0,0,0-2.19-1.24,2.57,2.57,0,0,0-1.65.6c-.34.27-.46.48-.48.46s0-.06.08-.15a2.52,2.52,0,0,1,.34-.38A2.7,2.7,0,0,1,53.94,54a2.84,2.84,0,0,1,1.27.28,2.56,2.56,0,0,1,1.1,1,1.89,1.89,0,0,1,.13,1.63,2.26,2.26,0,0,1-1.28,1.22,1.27,1.27,0,0,1-.94.06.56.56,0,0,1-.33-.4.68.68,0,0,1,.12-.48,1.07,1.07,0,0,1,.81-.36,2.75,2.75,0,0,1,.82.11,2.52,2.52,0,0,1,1.48,3.77,2.82,2.82,0,0,1-.31.4Z" transform="translate(0.06 -0.92)"/><path class="cls-7" d="M43.25,64.89c.5-1,1.89-1.08,2.89-.65a2,2,0,0,1,.92-1.9,2,2,0,0,1,2.13,0c.23.16.47.39.76.37s.51-.3.72-.5a2.07,2.07,0,0,1,2.9.16,2,2,0,0,1-.35,2.86l-.14-.53a11.26,11.26,0,0,1-6.11,3,4.32,4.32,0,0,1-2.82-.35A2,2,0,0,1,43.25,64.89Z" transform="translate(0.06 -0.92)"/><path class="cls-5" d="M40.8,73.32A3.52,3.52,0,0,1,41,69.21a3.41,3.41,0,0,1,1.37-1,4.28,4.28,0,0,1,1-2.48,2.63,2.63,0,0,1,3.57-.4A3.25,3.25,0,0,1,51.33,64a3.48,3.48,0,0,1,5.17.18,2.49,2.49,0,0,1,2.64,0,2.42,2.42,0,0,1,1.08,2.38,2.69,2.69,0,0,1,2.46.92A2.65,2.65,0,0,1,63.1,70a1.92,1.92,0,0,1,1.15,3.38,2.73,2.73,0,0,1-.58,3.94,2.27,2.27,0,0,1-1.54,2.61l-16,4.73a3.44,3.44,0,0,1-3.53-3.54,2.53,2.53,0,0,1-1.45-1.35,2.47,2.47,0,0,1,.1-2.12,2.71,2.71,0,0,1-.44-4.32Z" transform="translate(0.06 -0.92)"/><path class="cls-11" d="M47.05,69.74l9.82-2.17c3.14-.23,5.1,3.64,5.21,6.76a55.37,55.37,0,0,1-.37,10.25c-1,5.16-5,5.71-5,5.71a15.11,15.11,0,0,0-.09,1.61l-.08,2.5a4.24,4.24,0,0,1-1,2.76c-1.54,1.73-4.15,1.79-7.12.47-1.73-.77-1.62-1.74-1.83-4.13l-1.4-22.56A2.72,2.72,0,0,1,47.05,69.74Z" transform="translate(0.06 -0.92)"/><path class="cls-5" d="M60,79a.66.66,0,0,1-.66.65.63.63,0,0,1-.67-.62.66.66,0,0,1,.66-.65A.64.64,0,0,1,60,79Z" transform="translate(0.06 -0.92)"/><path class="cls-5" d="M60.85,77c-.08.09-.58-.3-1.3-.32s-1.26.33-1.34.24,0-.2.29-.36a1.88,1.88,0,0,1,2.11.07C60.82,76.79,60.89,77,60.85,77Z" transform="translate(0.06 -0.92)"/><path class="cls-5" d="M53.76,78.8a.66.66,0,0,1-.66.65.64.64,0,0,1-.67-.62.66.66,0,0,1,.66-.65A.64.64,0,0,1,53.76,78.8Z" transform="translate(0.06 -0.92)"/><path class="cls-5" d="M54,77c-.08.09-.58-.3-1.3-.32s-1.26.33-1.33.24.05-.2.28-.36a1.83,1.83,0,0,1,1.08-.29,1.77,1.77,0,0,1,1,.36C54,76.79,54.08,77,54,77Z" transform="translate(0.06 -0.92)"/><path class="cls-5" d="M56.07,81.78a4.7,4.7,0,0,1,1.18-.18c.18,0,.36,0,.39-.17a.89.89,0,0,0-.1-.54L57,79.48a23.1,23.1,0,0,1-1.11-3.67,24.13,24.13,0,0,1,1.41,3.57c.16.5.33,1,.48,1.42a1.09,1.09,0,0,1,.07.72.47.47,0,0,1-.31.26,1.2,1.2,0,0,1-.31,0A4.78,4.78,0,0,1,56.07,81.78Z" transform="translate(0.06 -0.92)"/><path class="cls-12" d="M56.73,90.29a13.4,13.4,0,0,1-6.95-2.06s1.63,3.68,6.87,3.35Z" transform="translate(0.06 -0.92)"/><path class="cls-12" d="M53.63,83.2a1,1,0,0,1,.88-.44,1.37,1.37,0,0,1,1.22.64.82.82,0,0,1,0,.61c-.05.1,0,0-.09.12a2.42,2.42,0,0,1-1,.57,1,1,0,0,1-1.06-1.5Z" transform="translate(0.06 -0.92)"/><path class="cls-5" d="M53.8,82.23c.12,0,.1.77.76,1.34s1.49.5,1.5.61-.19.15-.55.15a2,2,0,0,1-1.24-.47,1.63,1.63,0,0,1-.59-1.12C53.66,82.42,53.75,82.23,53.8,82.23Z" transform="translate(0.06 -0.92)"/><path class="cls-5" d="M54.14,73.87c-.07.19-.79.12-1.63.25s-1.52.37-1.64.2.06-.27.33-.47a2.84,2.84,0,0,1,1.21-.45,2.69,2.69,0,0,1,1.28.11C54,73.62,54.17,73.77,54.14,73.87Z" transform="translate(0.06 -0.92)"/><path class="cls-5" d="M60.71,74.43c-.15.16-.7,0-1.36-.09s-1.24,0-1.36-.13,0-.24.3-.38a2.16,2.16,0,0,1,2.19.18C60.71,74.19,60.78,74.36,60.71,74.43Z" transform="translate(0.06 -0.92)"/><path class="cls-5" d="M56.94,67a.52.52,0,0,1,0,.11h0Z" transform="translate(0.06 -0.92)"/><path class="cls-11" d="M46.54,79a.68.68,0,0,0-.54-.7,1.86,1.86,0,0,0-2.48,1.92c-.21,2.92,2.78,2.52,2.79,2.44S46.47,80.1,46.54,79Z" transform="translate(0.06 -0.92)"/><path class="cls-12" d="M45.49,81.47s-.05,0-.14.07a.51.51,0,0,1-.38,0,1.25,1.25,0,0,1-.51-1.17,1.77,1.77,0,0,1,.19-.71.62.62,0,0,1,.42-.37.28.28,0,0,1,.29.16c0,.09,0,.14,0,.15s.06,0,0-.17a.32.32,0,0,0-.11-.19.34.34,0,0,0-.27-.09.72.72,0,0,0-.57.41,1.74,1.74,0,0,0-.23.8,1.31,1.31,0,0,0,.65,1.31.57.57,0,0,0,.48,0C45.48,81.54,45.5,81.48,45.49,81.47Z" transform="translate(0.06 -0.92)"/><path class="cls-5" d="M63.11,76.05a1.85,1.85,0,0,1-1.44-.66,1.81,1.81,0,0,1-.38-1.52,2,2,0,0,1-1.54-.73,1.87,1.87,0,0,1-.33-1.66,2.43,2.43,0,0,1-2.06,0,2.34,2.34,0,0,1-1.28-1.59.72.72,0,0,1-.38.57,1.33,1.33,0,0,1-.69.12,2.24,2.24,0,0,1-1.83-1.28,2,2,0,0,1-2.42.77c-.31-.13-.61-.42-.56-.75a1.14,1.14,0,0,1,.15-.34,5.52,5.52,0,0,1,4.13-2.22,11.79,11.79,0,0,1,4.76.77,6.26,6.26,0,0,1,2.49,1.33,7.12,7.12,0,0,1,1.45,2.66,12.37,12.37,0,0,1,.63,2.13,3.87,3.87,0,0,1-.23,2.18l-.2,0" transform="translate(0.06 -0.92)"/><path class="cls-5" d="M50.76,69.27a2.75,2.75,0,0,1-2.27,2.61,1.4,1.4,0,0,1,.83,1.64,1.42,1.42,0,0,1-1.58,1,3.4,3.4,0,0,1,.34,1.32,1.16,1.16,0,0,1-.71,1.08A1.29,1.29,0,0,1,47.7,78a1.08,1.08,0,0,1-1.07.83c-.43,0-.78-.52-1.21-.6a2.09,2.09,0,0,0-1.8.54l-.54-5.44L43.75,69l2.56-1.86,4.94.88Z" transform="translate(0.06 -0.92)"/><path class="cls-6" d="M42.54,69.42a3.13,3.13,0,0,0,.52-.06,1.4,1.4,0,0,0,1-.85l.12-.33.05.35a1.63,1.63,0,0,0,.63,1.06,1.55,1.55,0,0,0,1.39.28,1.6,1.6,0,0,0,.81-.49l.1-.11.07.12a2.31,2.31,0,0,0,2.29,1,3.89,3.89,0,0,0,1-.38.75.75,0,0,1-.22.19,2,2,0,0,1-.76.32,2.23,2.23,0,0,1-1.24-.06A2.43,2.43,0,0,1,47,69.51h.17a1.84,1.84,0,0,1-2.49.24A1.86,1.86,0,0,1,44,68.55l.17,0a1.48,1.48,0,0,1-1.12.89A.8.8,0,0,1,42.54,69.42Z" transform="translate(0.06 -0.92)"/><path class="cls-6" d="M50.24,63.72a9.52,9.52,0,0,0-1.09.59,2.27,2.27,0,0,0-.8,1,1.39,1.39,0,0,0,.22,1.45,1.31,1.31,0,0,0,.43.29l.13,0-.07.11a1.34,1.34,0,0,0,0,1.29,2.38,2.38,0,0,0,.71.86c.52.4.88.59.86.62a.68.68,0,0,1-.26-.11,3.87,3.87,0,0,1-.68-.4,2.37,2.37,0,0,1-.81-.89,1.52,1.52,0,0,1,0-1.49l0,.16a1.3,1.3,0,0,1-.52-.35,1.56,1.56,0,0,1-.25-1.66,2.34,2.34,0,0,1,.9-1.06,3.89,3.89,0,0,1,.84-.39A.85.85,0,0,1,50.24,63.72Z" transform="translate(0.06 -0.92)"/><path class="cls-5" d="M66.18,81.12l-.1,0a1.44,1.44,0,0,1-.33.08,1.69,1.69,0,0,1-1.17-.34,1.65,1.65,0,0,1,.08-2.6,1,1,0,0,1,.58-.2.72.72,0,0,1,.58.28.63.63,0,0,1,0,.66,1.05,1.05,0,0,1-.42.44,1.58,1.58,0,0,1-1.1.14A1.85,1.85,0,0,1,63,78.46a2.34,2.34,0,0,1-.11-1.21,1,1,0,0,1,.13-.42s0,.15,0,.43a2.46,2.46,0,0,0,.18,1.14,1.79,1.79,0,0,0,.45.64,1.72,1.72,0,0,0,.8.39,1.3,1.3,0,0,0,.94-.13c.28-.15.51-.52.32-.78a.53.53,0,0,0-.41-.19.88.88,0,0,0-.46.16,1.46,1.46,0,0,0-.1,2.29,1.61,1.61,0,0,0,1.07.38C66,81.16,66.17,81.1,66.18,81.12Z" transform="translate(0.06 -0.92)"/><path class="cls-5" d="M43.07,77.45a1.28,1.28,0,0,1-.38.21,3.31,3.31,0,0,1-1.16.19,4.58,4.58,0,0,1-1.72-.31,1.37,1.37,0,0,1-.75-.76.83.83,0,0,1,0-.6.79.79,0,0,1,.45-.43.65.65,0,0,1,.39,0l-.08.2a1.78,1.78,0,0,1-1-1.74,1.54,1.54,0,0,1,.34-.84,1.76,1.76,0,0,1,.62-.46,1.64,1.64,0,0,1,1.1-.11.81.81,0,0,1,.37.16s-.14,0-.39-.08a1.72,1.72,0,0,0-1,.16,1.45,1.45,0,0,0-.83,1.19,1.58,1.58,0,0,0,.85,1.52l-.08.21a.4.4,0,0,0-.24,0,.58.58,0,0,0-.33.3.69.69,0,0,0,0,.45,1.13,1.13,0,0,0,.63.64,5.09,5.09,0,0,0,1.64.35A4.29,4.29,0,0,0,43.07,77.45Z" transform="translate(0.06 -0.92)"/><path class="cls-11" d="M63.25,116.47c.14.2,4.86,6.5,4.86,6.5l5.72-5.27-3.66-9.15L68,104.82Z" transform="translate(0.06 -0.92)"/><g class="cls-10"><polygon points="44.71 172.1 42.32 172.05 41.47 151.48 36.29 149.3 45.71 143.55 70.82 161.16 75.84 172.1 44.71 172.1"/></g><path class="cls-11" d="M61.19,166s4.43,8.33,4.43,8.33l6.58-3.63-2.89-9.08Z" transform="translate(0.06 -0.92)"/><path class="cls-5" d="M64.88,173.15s6.76.21,6.91-4.12l.36.87,10.11,6.59c1.6,1.13,1.48,2.43,1,3.1a1.51,1.51,0,0,1-1.49.7c-3.14-.4-14.7-1.92-15.28-2.84l-.6-.81c-1-1.13-1.28-2.52-1-3Z" transform="translate(0.06 -0.92)"/><g class="cls-13"><path class="cls-1" d="M83.14,179.81l-17.2-3.17.38.51a1.79,1.79,0,0,0,1.28.79c1.56.47,5.45,1.23,14.18,2.38a1.53,1.53,0,0,0,1.36-.51Z" transform="translate(0.06 -0.92)"/></g><g class="cls-13"><path class="cls-1" d="M67.14,174.47a.93.93,0,0,1,.93.82.89.89,0,0,1-.81.92,1,1,0,0,1-1-.87c0-.45.5-1,1-.86" transform="translate(0.06 -0.92)"/></g><path class="cls-1" d="M75.11,175.81a4.4,4.4,0,0,1,.36-1.7,4.51,4.51,0,0,1,1.19-1.28s-.24,0-.55.15a2.41,2.41,0,0,0-.94,1,2.47,2.47,0,0,0-.26,1.33C75,175.64,75.07,175.83,75.11,175.81Z" transform="translate(0.06 -0.92)"/><path class="cls-1" d="M77,176.53c.1,0,.2-.66.69-1.3s1.1-.92,1.06-1-.78.08-1.33.82A1.71,1.71,0,0,0,77,176.53Z" transform="translate(0.06 -0.92)"/><path class="cls-1" d="M72.93,175a13.1,13.1,0,0,1,.8-1.8,13.62,13.62,0,0,1,1.28-1.5,3.64,3.64,0,0,0-2.08,3.3Z" transform="translate(0.06 -0.92)"/><path class="cls-1" d="M73.17,172.38s-.11-.18-.4-.4a4,4,0,0,0-1.39-.68,1.79,1.79,0,0,0-1.13,0,.63.63,0,0,0-.37.6,1,1,0,0,0,.33.63,2.17,2.17,0,0,0,2.77,0,2.49,2.49,0,0,0,.73-2.68.9.9,0,0,0-.51-.52.6.6,0,0,0-.66.24,2.07,2.07,0,0,0-.3,1.06,4.3,4.3,0,0,0,.15,1.53,1.25,1.25,0,0,0,.22.52,6.59,6.59,0,0,1-.14-2,2.06,2.06,0,0,1,.28-.92.34.34,0,0,1,.37-.14.63.63,0,0,1,.31.36,2.23,2.23,0,0,1-.66,2.32,1.88,1.88,0,0,1-2.35.05.67.67,0,0,1-.25-.43.34.34,0,0,1,.2-.33,1.62,1.62,0,0,1,.95,0A5.78,5.78,0,0,1,73.17,172.38Z" transform="translate(0.06 -0.92)"/><path class="cls-11" d="M46.92,176.9s.08,10.26.08,10.26,7.17,1.12,7.17.93,2.12-10,2.12-10Z" transform="translate(0.06 -0.92)"/><path class="cls-5" d="M54.75,185.24s-5.21,3.9-7.77.39l-.1.93-4.69,11.06c-.7,1.83.14,2.84.86,3.16a1.55,1.55,0,0,0,1.64-.24c2.39-2.07,11.13-9.72,11.09-10.81l0-1c.16-1.47-.35-2.8-.9-3Z" transform="translate(0.06 -0.92)"/><g class="cls-13"><path class="cls-1" d="M43.32,200.87l12.51-12.14,0,.63a1.73,1.73,0,0,1-.63,1.36c-1,1.26-3.82,4-10.44,9.82a1.53,1.53,0,0,1-1.41.33Z" transform="translate(0.06 -0.92)"/></g><g class="cls-13"><path class="cls-1" d="M53.61,187.59a.92.92,0,0,0-.31,1.19.9.9,0,0,0,1.19.32,1,1,0,0,0,.32-1.26.93.93,0,0,0-1.27-.19" transform="translate(0.06 -0.92)"/></g><path class="cls-1" d="M47.75,193.11c-.08,0-.39-.76-1.26-1.22a4.65,4.65,0,0,0-1.7-.4s.18-.15.53-.18a2.44,2.44,0,0,1,1.33.3,2.35,2.35,0,0,1,1,1C47.78,192.88,47.79,193.1,47.75,193.11Z" transform="translate(0.06 -0.92)"/><path class="cls-1" d="M46.56,194.76a12.3,12.3,0,0,0-1.3-.7,11.56,11.56,0,0,0-1.45-.25,1.72,1.72,0,0,1,1.56-.06C46.24,194.05,46.64,194.73,46.56,194.76Z" transform="translate(0.06 -0.92)"/><path class="cls-1" d="M49.11,191.25a12.74,12.74,0,0,0-1.67-1.05,12.07,12.07,0,0,0-1.9-.53,3.62,3.62,0,0,1,3.57,1.58Z" transform="translate(0.06 -0.92)"/><path class="cls-1" d="M47.43,189.18a1.17,1.17,0,0,1,.11-.55,3.86,3.86,0,0,1,.77-1.33,1.69,1.69,0,0,1,.92-.64.61.61,0,0,1,.65.29,1,1,0,0,1,.08.7,2.17,2.17,0,0,1-2.31,1.52,2.52,2.52,0,0,1-2.11-1.83.83.83,0,0,1,.12-.71.62.62,0,0,1,.69-.17,2.21,2.21,0,0,1,.85.72,4.34,4.34,0,0,1,.73,1.35,1.38,1.38,0,0,1,.11.56,7,7,0,0,0-1-1.76,2,2,0,0,0-.76-.61.32.32,0,0,0-.37.09.6.6,0,0,0-.06.47,2.24,2.24,0,0,0,1.85,1.56,1.88,1.88,0,0,0,2-1.25.76.76,0,0,0,0-.5.32.32,0,0,0-.36-.16,1.53,1.53,0,0,0-.79.52A5.72,5.72,0,0,0,47.43,189.18Z" transform="translate(0.06 -0.92)"/><path class="cls-7" d="M37.53,95.68l8.94-3.42s2.26,3.87,6.23,3.53,3.93-3.28,3.93-3.28l11.24,3.16s.74,15.07,0,17.43A25.89,25.89,0,0,1,65,118.51s2.22,5.13,2.28,6.54-.57,1.06-.57,1.06l-27.11.32Z" transform="translate(0.06 -0.92)"/><g class="cls-10"><path d="M61.38,111.12c-.35-.31-.9-.1-1.31.12-2.34,1.25-4.68,2.51-6.89,4-2.8,1.83-5.38,4-8.12,5.88-1.61,1.12-3.28,2.18-5,3.15l-.58,1a3.32,3.32,0,0,0,3.07,1.35,7.43,7.43,0,0,0,3.26-1.26c4.6-2.89,7.84-7.57,12.44-10.46a8.81,8.81,0,0,0,3.1-2.51C61.58,112,61.71,111.42,61.38,111.12Z" transform="translate(0.06 -0.92)"/></g><path class="cls-5" d="M62.42,118.26a6.85,6.85,0,0,1-1.11.06c-.69,0-1.64.05-2.69.13s-2,.19-2.68.27a7.7,7.7,0,0,1-1.11.11,4.55,4.55,0,0,1,1.09-.26,25.06,25.06,0,0,1,2.68-.34,23.79,23.79,0,0,1,2.71-.06A4.86,4.86,0,0,1,62.42,118.26Z" transform="translate(0.06 -0.92)"/><path class="cls-11" d="M33.46,113.94s2.51,7,3.61,8.79,1.59,4.09,5.14,3.15,5.36-3.24,9.24-6.4,6.4-5.54,6.4-5.54l-2.74-3.29-11.34,5.12-2.7-5.87Z" transform="translate(0.06 -0.92)"/><path class="cls-11" d="M67.74,103.41,60,107.49l-6.38,4s3.17,2.78,4.06,2.71a4.76,4.76,0,0,0,2.11-1.3.92.92,0,0,0,.52.5c.39.14.85-.31.85-.31a2.8,2.8,0,0,0,.85.18c.39,0,.84-1.48,1.07-2.46a1.72,1.72,0,0,0-.16-1.45l.31-.17.43.74-.67,2.36c-.35,1.3.91,1.12.91,1.12a13.47,13.47,0,0,0,1.53-3.75,2.65,2.65,0,0,0-1.23-2.23S67,105,67.74,104.54,67.74,103.41,67.74,103.41Z" transform="translate(0.06 -0.92)"/><path class="cls-12" d="M42.84,120.92a1.89,1.89,0,0,1-.26-.77,5.05,5.05,0,0,1,0-2,5.2,5.2,0,0,1,.78-1.81,2.06,2.06,0,0,1,.55-.6,6.35,6.35,0,0,0-1.1,5.15Z" transform="translate(0.06 -0.92)"/><path class="cls-7" d="M38,95.5a9,9,0,0,0-6,6.71c-.58,3.12.81,13.26.81,13.26l9.68-3.57Z" transform="translate(0.06 -0.92)"/><path class="cls-5" d="M39.62,102.47a9.65,9.65,0,0,1,.38,1.41c.23.94.52,2.12.83,3.43s.64,2.55.89,3.42.41,1.4.38,1.41a1.93,1.93,0,0,1-.17-.36c-.1-.23-.22-.58-.36-1-.28-.86-.62-2.06-1-3.41s-.6-2.56-.77-3.45A9.5,9.5,0,0,1,39.62,102.47Z" transform="translate(0.06 -0.92)"/><path class="cls-5" d="M39.91,126.43s-6.39,7.44-6.24,13.45a22.44,22.44,0,0,0,2.85,10.34l8.48.5s.75-4,3.79-4c.65,0,11.71,21,11.71,21l10.83-4.91s-7.13-18.56-8.87-22.92-3.37-6.47-5.7-7.1l-2.6-6.51Z" transform="translate(0.06 -0.92)"/><path class="cls-6" d="M41.7,133.62s-.4-.07-1-.12a6.32,6.32,0,0,0-2.46.29,5.52,5.52,0,0,0-2.11,1.28c-.45.45-.66.8-.7.77a.83.83,0,0,1,.13-.25A3.32,3.32,0,0,1,36,135a5.13,5.13,0,0,1,2.15-1.38,5.76,5.76,0,0,1,2.55-.23A2.9,2.9,0,0,1,41.7,133.62Z" transform="translate(0.06 -0.92)"/><path class="cls-6" d="M52.07,132.06a19.07,19.07,0,0,1-.11-2.88,19.07,19.07,0,0,1,.11-2.88,19.07,19.07,0,0,1,.11,2.88A19.07,19.07,0,0,1,52.07,132.06Z" transform="translate(0.06 -0.92)"/><path class="cls-6" d="M44.6,126.27a1,1,0,0,1-.11.34,5.17,5.17,0,0,1-.47.84,6.43,6.43,0,0,1-2.37,2.13,6.51,6.51,0,0,1-3.11.72,5.35,5.35,0,0,1-1-.1c-.22,0-.34-.08-.34-.1s.5.07,1.31.05a7,7,0,0,0,3-.77,6.84,6.84,0,0,0,2.34-2C44.37,126.72,44.57,126.26,44.6,126.27Z" transform="translate(0.06 -0.92)"/><path class="cls-5" d="M67,126.11a17.36,17.36,0,0,1,4.37,8.64c.87,5.21.93,12-.57,14.52l-4.27.95L62.72,154l-5.33,28.8-12.11-1.65s-1.13-25-.74-27.41.46-3,.46-3A9.43,9.43,0,0,1,47.59,144a69.89,69.89,0,0,1,6.95-5.8l-.38-11.89Z" transform="translate(0.06 -0.92)"/><path class="cls-6" d="M69.6,130.2a1.57,1.57,0,0,1-.39.16,7.34,7.34,0,0,1-1.14.26,6.63,6.63,0,0,1-3.78-.61,4.73,4.73,0,0,1-.91-.63,8.5,8.5,0,0,1-.76-.68,16.06,16.06,0,0,1-1.18-1.26c-.31-.37-.55-.68-.72-.9a2.17,2.17,0,0,1-.24-.35,12,12,0,0,1,1.08,1.15c.33.36.73.78,1.2,1.22a7.87,7.87,0,0,0,1.64,1.25,6.65,6.65,0,0,0,3.65.65C69,130.37,69.59,130.15,69.6,130.2Z" transform="translate(0.06 -0.92)"/><path class="cls-6" d="M45,150.72s0-.14.07-.41a3.22,3.22,0,0,1,.11-.49,5.08,5.08,0,0,1,.25-.66,4,4,0,0,1,1.21-1.55,4.79,4.79,0,0,1,2.48-1h0v0l11.42,21-.14,0,10.83-4.92-.06.14-1.73-4.39-5.84-14.79-2.6-6.6a6.8,6.8,0,0,0-1.77-2.67A6.09,6.09,0,0,0,56.64,133h0a22.45,22.45,0,0,0-7.15-.85,23.33,23.33,0,0,0-5.41.89,24.64,24.64,0,0,0-3.26,1.23l-.81.4-.29.13.27-.15c.18-.1.45-.25.81-.42a21.42,21.42,0,0,1,3.26-1.28,22.6,22.6,0,0,1,12.63-.11h0a6.37,6.37,0,0,1,2.73,1.48A7,7,0,0,1,61.23,137l2.61,6.6c1.83,4.6,3.8,9.58,5.85,14.78.6,1.51,1.19,3,1.74,4.39l0,.1-.1,0-10.83,4.91-.09,0,0-.09c-4.83-9-8.84-16.45-11.33-21.07l.05,0a4.69,4.69,0,0,0-2.44.95,4.12,4.12,0,0,0-1.21,1.51,3.87,3.87,0,0,0-.25.65,1.89,1.89,0,0,0-.13.49C45,150.58,45,150.72,45,150.72Z" transform="translate(0.06 -0.92)"/><path class="cls-6" d="M69.6,135.17s-.48-.29-1.32-.64a8.38,8.38,0,0,0-1.51-.49,9.41,9.41,0,0,0-3.86,0,9.57,9.57,0,0,0-1.52.46c-.84.35-1.31.67-1.33.63a1.24,1.24,0,0,1,.31-.24,4.1,4.1,0,0,1,.4-.25c.16-.08.34-.19.56-.28a8.25,8.25,0,0,1,1.53-.52,9.39,9.39,0,0,1,2-.21,9.16,9.16,0,0,1,2,.24,8,8,0,0,1,1.53.53,4.79,4.79,0,0,1,.56.29,4.56,4.56,0,0,1,.39.25A1.39,1.39,0,0,1,69.6,135.17Z" transform="translate(0.06 -0.92)"/><g class="cls-10"><path d="M49.13,146.66s3.2,13.59,6.7,17.39,4.43,4.6,4.43,4.6l.24-.94Z" transform="translate(0.06 -0.92)"/></g><path class="cls-11" d="M68,122.86a8,8,0,0,1,1.39-3.32,23.79,23.79,0,0,1,3-2.62h.53l1.41-3.13,4-.19s-.83,7.64-2.74,10-3.84,2.2-4.65,2S68,122.86,68,122.86Z" transform="translate(0.06 -0.92)"/><path class="cls-5" d="M61.21,93.35,58.1,108.62a1.35,1.35,0,0,0,1.34,1.62H80.89a1.37,1.37,0,0,0,1.34-1.06l3.44-15.26a1.36,1.36,0,0,0-1.33-1.66H62.55A1.37,1.37,0,0,0,61.21,93.35Z" transform="translate(0.06 -0.92)"/><path class="cls-6" d="M61.21,93.35a1.79,1.79,0,0,1,0-.21,1.3,1.3,0,0,1,.35-.52,1.37,1.37,0,0,1,.94-.39H64l8.93,0,6.16,0h5.23a1.48,1.48,0,0,1,1.49,1.06,1.87,1.87,0,0,1,0,1l-.21.92c-.14.62-.28,1.24-.42,1.88-.29,1.26-.58,2.55-.87,3.86-.59,2.63-1.21,5.34-1.84,8.13a1.88,1.88,0,0,1-.16.53,1.53,1.53,0,0,1-.34.46,1.47,1.47,0,0,1-1.06.37H59.68a2,2,0,0,1-.85-.14,1.4,1.4,0,0,1-.63-.55,1.36,1.36,0,0,1-.21-.8,6,6,0,0,1,.13-.78l.6-2.87c.76-3.66,1.37-6.62,1.8-8.67.22-1,.39-1.81.5-2.36l.14-.61c0-.14.05-.21.05-.21a1.13,1.13,0,0,1,0,.21l-.11.62c-.11.55-.26,1.34-.46,2.36l-1.74,8.69-.58,2.88a5,5,0,0,0-.13.74,1.23,1.23,0,0,0,.19.7,1.27,1.27,0,0,0,.56.49,1.62,1.62,0,0,0,.77.11H80.82a1.29,1.29,0,0,0,.91-.32,1.62,1.62,0,0,0,.3-.39,2.34,2.34,0,0,0,.14-.49c.63-2.78,1.24-5.5,1.84-8.13.29-1.31.59-2.6.87-3.86.14-.63.29-1.26.43-1.87l.21-.92a1.62,1.62,0,0,0,0-.87,1.29,1.29,0,0,0-1.29-.93H79l-6.16,0-8.93,0h-1.4a1.29,1.29,0,0,0-.91.35A1.65,1.65,0,0,0,61.21,93.35Z" transform="translate(0.06 -0.92)"/><path class="cls-11" d="M74,100.31s2.59,4.37,2.86,5,1,1.47,1.09,2a43.07,43.07,0,0,1,.61,4.84,8.45,8.45,0,0,1-.69,2.55l-3.55-.88A5.64,5.64,0,0,1,73,112a4.07,4.07,0,0,0-1.37-1.83,16.36,16.36,0,0,1-2.45-1.86.84.84,0,0,1,0-.86s-.83-.39-1-.85,0-1.14.93-.72,4.38,2.86,4.73,2.6-.08-.91-.08-.91-3.66-3.3-3.85-3.89.35-1.4,1.2-.68,3.66,3.52,4,3.52,0-.82,0-.82-1.44-3.07-1.68-3.9S73.27,99.89,74,100.31Z" transform="translate(0.06 -0.92)"/><path class="cls-6" d="M85.84,93.16s0,0-.11,0h-.31l-1.18,0-4.34,0-14.31,0H63.52a1.08,1.08,0,0,0-.86.29.91.91,0,0,0-.24.37c-.05.13-.08.31-.12.46q-.44,1.92-.81,3.69l-1.33,6.24c-.38,1.78-.71,3.22-.95,4.21l-.28,1.13-.08.3,0,.1s0,0,0-.11l.06-.3.24-1.14c.21-1,.51-2.45.88-4.22s.8-3.9,1.28-6.26c.25-1.17.51-2.41.8-3.68a5,5,0,0,1,.12-.49,1.08,1.08,0,0,1,.3-.46,1.3,1.3,0,0,1,1-.34h2.07l14.31,0,4.34,0,1.18,0h.42Z" transform="translate(0.06 -0.92)"/><path class="cls-12" d="M68.54,120.08a1.41,1.41,0,0,1,.11-.34,4.66,4.66,0,0,1,.5-.85,4.92,4.92,0,0,1,2.65-1.83,4.82,4.82,0,0,1,1-.14l-.09,0c.48-.88.86-1.71,1.14-2.27a7.53,7.53,0,0,1,.48-.91,4.23,4.23,0,0,1-.35,1c-.26.59-.59,1.41-1.09,2.33l0,0h-.07a5,5,0,0,0-.92.14A5.12,5.12,0,0,0,69.27,119C68.76,119.61,68.58,120.1,68.54,120.08Z" transform="translate(0.06 -0.92)"/><path class="cls-12" d="M73.15,109.8a12.25,12.25,0,0,1-2-1.1,12.55,12.55,0,0,1-1.92-1.29,12.7,12.7,0,0,1,2,1.1A12.55,12.55,0,0,1,73.15,109.8Z" transform="translate(0.06 -0.92)"/><path class="cls-4" d="M74.29,96.85a.71.71,0,1,1-.44-1A.74.74,0,0,1,74.29,96.85Z" transform="translate(0.06 -0.92)"/><path class="cls-5" d="M42.55,80.13a1.25,1.25,0,0,1-.24-.43,2.6,2.6,0,0,1-.1-1.31,2.48,2.48,0,0,1,1.11-1.62,2.58,2.58,0,0,1,1.12-.39,1.6,1.6,0,0,1,.65,0,.67.67,0,0,1,.51.49.51.51,0,0,1-.08.38.74.74,0,0,1-.27.23,1,1,0,0,1-.67.1,1.26,1.26,0,0,1-.94-.74,1.23,1.23,0,0,1,.08-1.08,1.35,1.35,0,0,1,.7-.64,1.57,1.57,0,0,1,1.32.11c.28.15.38.3.37.31s-.13-.11-.41-.24a1.56,1.56,0,0,0-1.22,0,1.29,1.29,0,0,0-.6.58,1,1,0,0,0,.74,1.53.85.85,0,0,0,.52-.08.36.36,0,0,0,.24-.38.47.47,0,0,0-.35-.33,1.81,1.81,0,0,0-.57,0,2.52,2.52,0,0,0-1,.35,2.34,2.34,0,0,0-1.07,1.48,2.55,2.55,0,0,0,0,1.26C42.48,80,42.57,80.12,42.55,80.13Z" transform="translate(0.06 -0.92)"/></svg>